<?xml version="1.0" encoding="UTF-8"?>
<!DOCTYPE svg PUBLIC "-//W3C//DTD SVG 1.1//EN" "http://www.w3.org/Graphics/SVG/1.1/DTD/svg11.dtd">
<!-- Creator: CorelDRAW X7 -->
<svg xmlns="http://www.w3.org/2000/svg" xml:space="preserve" width="4in" height="3in" version="1.1" style="shape-rendering:geometricPrecision; text-rendering:geometricPrecision; image-rendering:optimizeQuality; fill-rule:evenodd; clip-rule:evenodd"
viewBox="0 0 4000 3000"
 xmlns:xlink="http://www.w3.org/1999/xlink">
 <defs>
  <style type="text/css">
   <![CDATA[
    .str3 {stroke:#465E7A;stroke-width:25.7323}
    .str1 {stroke:#79B0DD;stroke-width:11.622;stroke-linecap:round}
    .str2 {stroke:#9AC9EC;stroke-width:11.622;stroke-linecap:round}
    .str0 {stroke:#A8D3F1;stroke-width:11.622;stroke-linecap:round}
    .fil6 {fill:none;fill-rule:nonzero}
    .fil17 {fill:#00081A;fill-rule:nonzero}
    .fil8 {fill:#21334F;fill-rule:nonzero}
    .fil25 {fill:#302720;fill-rule:nonzero}
    .fil10 {fill:#414D5B;fill-rule:nonzero}
    .fil27 {fill:#46345E;fill-rule:nonzero}
    .fil5 {fill:#79B0DD;fill-rule:nonzero}
    .fil3 {fill:#86BDE6;fill-rule:nonzero}
    .fil1 {fill:#9AC9EC;fill-rule:nonzero}
    .fil2 {fill:#A8D3F1;fill-rule:nonzero}
    .fil32 {fill:#CC0A31;fill-rule:nonzero}
    .fil0 {fill:#D2EAF9;fill-rule:nonzero}
    .fil9 {fill:#E0925C;fill-rule:nonzero}
    .fil12 {fill:#E58E0E;fill-rule:nonzero}
    .fil28 {fill:#FA7782;fill-rule:nonzero}
    .fil18 {fill:#FCB2BA;fill-rule:nonzero}
    .fil4 {fill:white;fill-rule:nonzero}
    .fil26 {fill:url(#id0)}
    .fil15 {fill:url(#id1)}
    .fil14 {fill:url(#id2)}
    .fil23 {fill:url(#id3)}
    .fil24 {fill:url(#id4)}
    .fil16 {fill:url(#id5)}
    .fil13 {fill:url(#id6)}
    .fil19 {fill:url(#id7)}
    .fil33 {fill:url(#id8)}
    .fil30 {fill:url(#id9)}
    .fil22 {fill:url(#id10)}
    .fil21 {fill:url(#id11)}
    .fil20 {fill:url(#id12)}
    .fil29 {fill:url(#id13)}
    .fil31 {fill:url(#id14)}
    .fil11 {fill:url(#id15)}
    .fil7 {fill:url(#id16)}
   ]]>
  </style>
  <linearGradient id="id0" gradientUnits="userSpaceOnUse" x1="2242.06" y1="1425.68" x2="2324.68" y2="1425.68">
   <stop offset="0" style="stop-opacity:1; stop-color:#FDD7DB"/>
   <stop offset="1" style="stop-opacity:1; stop-color:#FBADAF"/>
  </linearGradient>
  <linearGradient id="id1" gradientUnits="userSpaceOnUse" x1="2147" y1="2260.17" x2="2284.5" y2="2260.17">
   <stop offset="0" style="stop-opacity:1; stop-color:#473071"/>
   <stop offset="1" style="stop-opacity:1; stop-color:#382A5F"/>
  </linearGradient>
  <linearGradient id="id2" gradientUnits="userSpaceOnUse" x1="3062.19" y1="1878.75" x2="3275.17" y2="1878.75">
   <stop offset="0" style="stop-opacity:1; stop-color:#F4B073"/>
   <stop offset="1" style="stop-opacity:1; stop-color:#E2995C"/>
  </linearGradient>
  <linearGradient id="id3" gradientUnits="userSpaceOnUse" x1="2052.09" y1="1752.28" x2="2516.91" y2="1752.28">
   <stop offset="0" style="stop-opacity:1; stop-color:#E09E4F"/>
   <stop offset="1" style="stop-opacity:1; stop-color:#CD8B3A"/>
  </linearGradient>
  <linearGradient id="id4" gradientUnits="userSpaceOnUse" xlink:href="#id2" x1="2038.05" y1="1592.46" x2="2530.96" y2="1592.46">
  </linearGradient>
  <linearGradient id="id5" gradientUnits="userSpaceOnUse" xlink:href="#id1" x1="2284.5" y1="2260.17" x2="2422.02" y2="2260.17">
  </linearGradient>
  <linearGradient id="id6" gradientUnits="userSpaceOnUse" xlink:href="#id2" x1="2671.68" y1="1657.11" x2="3005.24" y2="1657.11">
  </linearGradient>
  <linearGradient id="id7" gradientUnits="userSpaceOnUse" x1="2067.09" y1="1512.37" x2="2500.71" y2="1512.37">
   <stop offset="0" style="stop-opacity:1; stop-color:#FF5B96"/>
   <stop offset="1" style="stop-opacity:1; stop-color:#DA3362"/>
  </linearGradient>
  <linearGradient id="id8" gradientUnits="userSpaceOnUse" xlink:href="#id7" x1="2200.44" y1="1255.98" x2="2367.18" y2="1255.98">
  </linearGradient>
  <linearGradient id="id9" gradientUnits="userSpaceOnUse" xlink:href="#id0" x1="2196.95" y1="1344.2" x2="2220.15" y2="1344.2">
  </linearGradient>
  <linearGradient id="id10" gradientUnits="userSpaceOnUse" xlink:href="#id0" x1="2502.53" y1="1635.52" x2="2502.53" y2="1837.6">
  </linearGradient>
  <linearGradient id="id11" gradientUnits="userSpaceOnUse" xlink:href="#id7" x1="2125" y1="1924.81" x2="2444" y2="1924.81">
  </linearGradient>
  <linearGradient id="id12" gradientUnits="userSpaceOnUse" xlink:href="#id0" x1="2066.48" y1="1635.52" x2="2066.48" y2="1837.6">
  </linearGradient>
  <linearGradient id="id13" gradientUnits="userSpaceOnUse" xlink:href="#id0" x1="2222.36" y1="1334.11" x2="2344.39" y2="1334.11">
  </linearGradient>
  <linearGradient id="id14" gradientUnits="userSpaceOnUse" xlink:href="#id0" x1="2371.45" y1="1344.2" x2="2344.94" y2="1344.2">
  </linearGradient>
  <linearGradient id="id15" gradientUnits="userSpaceOnUse" x1="2341.08" y1="875.724" x2="2774.84" y2="1715.43">
   <stop offset="0" style="stop-opacity:1; stop-color:#FDBE42"/>
   <stop offset="1" style="stop-opacity:1; stop-color:#F7931E"/>
  </linearGradient>
  <linearGradient id="id16" gradientUnits="userSpaceOnUse" xlink:href="#id15" x1="1224.59" y1="1099.75" x2="1828.31" y2="1666.66">
  </linearGradient>
 </defs>
 <g id="Layer_x0020_1">
  <metadata id="CorelCorpID_0Corel-Layer"/>
  <g id="_832742576">
   <path class="fil0" d="M2559 2522c-797,-212 -1235,398 -1875,96 -562,-264 -340,-848 -131,-1105 208,-256 -214,-820 131,-1084 344,-264 873,251 1528,17 654,-233 1072,-183 1184,76 112,259 -178,647 114,948 378,389 104,1333 -951,1052z"/>
   <path class="fil1" d="M337 1989l3327 0c5,-30 7,-61 7,-91l0 0 -3314 0c-8,30 -15,60 -20,91z"/>
   <path class="fil2" d="M1453 620c0,0 -512,978 0,978 511,0 0,-978 0,-978z"/>
   <path class="fil2" d="M868 876c0,0 -449,859 0,859 449,0 0,-859 0,-859z"/>
   <path class="fil3" d="M868 1996c-5,0 -9,-4 -9,-9l0 -703c0,-5 4,-9 9,-9 4,0 8,4 8,9l0 703c0,5 -4,9 -8,9z"/>
   <path class="fil3" d="M872 1642c-3,0 -5,-1 -7,-3 -3,-3 -3,-8 0,-12l70 -70c4,-3 9,-3 13,0 3,3 3,9 0,12l-70 70c-2,2 -4,3 -6,3z"/>
   <path class="fil3" d="M865 1523c-3,0 -5,-1 -6,-3l-82 -81c-3,-3 -3,-9 0,-12 4,-4 9,-4 12,0l82 81c3,3 3,9 0,12 -2,2 -4,3 -6,3z"/>
   <path class="fil2" d="M3433 1154c0,0 -303,578 0,578 302,0 0,-578 0,-578z"/>
   <path class="fil3" d="M3433 1907c-4,0 -6,-2 -6,-5l0 -474c0,-3 2,-6 6,-6 3,0 5,3 5,6l0 474c0,3 -2,5 -5,5z"/>
   <path class="fil3" d="M3435 1669c-1,0 -3,0 -4,-2 -2,-2 -2,-5 0,-8l47 -47c3,-2 6,-2 8,0 3,2 3,6 0,8l-47 47c-1,2 -2,2 -4,2z"/>
   <path class="fil3" d="M3431 1589c-2,0 -3,-1 -4,-2l-55 -54c-2,-3 -2,-6 0,-9 2,-2 6,-2 8,0l55 55c2,2 2,6 0,8 -1,1 -3,2 -4,2z"/>
   <path class="fil4" d="M2360 682c0,18 -14,32 -32,32 -18,0 -32,-14 -32,-32 0,-18 14,-32 32,-32 18,0 32,14 32,32z"/>
   <path class="fil4" d="M1842 2214c0,18 -14,32 -32,32 -18,0 -33,-14 -33,-32 0,-18 15,-32 33,-32 18,0 32,14 32,32z"/>
   <path class="fil4" d="M3304 2278c0,18 -14,33 -32,33 -18,0 -32,-15 -32,-33 0,-17 14,-32 32,-32 18,0 32,15 32,32z"/>
   <path class="fil2" d="M1771 780c0,18 -14,32 -32,32 -18,0 -33,-14 -33,-32 0,-18 15,-32 33,-32 18,0 32,14 32,32z"/>
   <path class="fil2" d="M1152 1109c0,18 -14,32 -32,32 -18,0 -33,-14 -33,-32 0,-18 15,-33 33,-33 18,0 32,15 32,33z"/>
   <path class="fil2" d="M3553 1109c0,18 -15,32 -33,32 -17,0 -32,-14 -32,-32 0,-18 15,-33 32,-33 18,0 33,15 33,33z"/>
   <path class="fil2" d="M631 2246c0,18 -15,32 -33,32 -18,0 -32,-14 -32,-32 0,-18 14,-32 32,-32 18,0 33,14 33,32z"/>
   <path class="fil4" d="M1032 620c0,30 -25,55 -56,55 -30,0 -55,-25 -55,-55 0,-31 25,-56 55,-56 31,0 56,25 56,56z"/>
   <path class="fil2" d="M3061 571c0,31 -25,55 -56,55 -30,0 -55,-24 -55,-55 0,-31 25,-56 55,-56 31,0 56,25 56,56z"/>
   <path class="fil2" d="M440 1324c0,31 -25,56 -56,56 -31,0 -55,-25 -55,-56 0,-30 24,-55 55,-55 31,0 56,25 56,55z"/>
   <path class="fil2" d="M2841 2214c0,30 -25,55 -55,55 -31,0 -56,-25 -56,-55 0,-31 25,-56 56,-56 30,0 55,25 55,56z"/>
   <path class="fil5" d="M813 2667c26,-97 81,-264 172,-433 72,-131 236,-365 340,-285 104,80 -170,305 -299,514 -63,102 -106,174 -134,224 -26,-5 -53,-12 -79,-20z"/>
   <path class="fil4" d="M890 2687c46,-71 121,-174 219,-270 87,-86 270,-231 332,-144 64,87 -204,199 -354,332 -43,38 -77,69 -105,95 -31,-3 -61,-7 -92,-13z"/>
   <path class="fil2" d="M738 2641c-2,-82 1,-192 19,-308 20,-121 83,-345 184,-312 103,33 -47,281 -90,477 -16,72 -27,128 -35,170 -26,-7 -51,-16 -78,-27z"/>
   <path class="fil6 str0" d="M856 2679c163,-407 414,-662 414,-662"/>
   <path class="fil6 str1" d="M777 2656c5,-103 26,-340 113,-546"/>
   <path class="fil6 str2" d="M920 2692c82,-96 240,-260 427,-359"/>
   <path class="fil7" d="M1836 1032l-404 0c-19,0 -36,9 -47,24l-179 266c-6,9 -10,20 -10,31l0 361c0,11 10,21 21,21l619 0c11,0 21,-10 21,-21l0 -661c0,-12 -10,-21 -21,-21z"/>
   <path class="fil8" d="M1302 1313l127 -199c2,-3 6,-5 10,-5l333 0c6,0 12,5 12,12l0 199c0,6 -6,12 -12,12l-459 0c-10,0 -16,-11 -11,-19z"/>
   <path class="fil6 str3" d="M1302 1313l127 -199c2,-3 6,-5 10,-5l333 0c6,0 12,5 12,12l0 199c0,6 -6,12 -12,12l-459 0c-10,0 -16,-11 -11,-19z"/>
   <path class="fil8" d="M1958 1702l0 33 -161 0c-31,-34 -75,-55 -125,-55 -50,0 -95,21 -126,55l-393 0 0 59c0,31 26,57 57,57l2019 0 0 -149 -1271 0z"/>
   <path class="fil4" d="M1263 1673l-67 0 0 -86 67 0c10,0 19,9 19,19l0 47c0,11 -9,20 -19,20z"/>
   <path class="fil9" d="M1704 1442l-92 0c-5,0 -9,-4 -9,-9l0 0c0,-6 4,-10 9,-10l92 0c5,0 9,4 9,10l0 0c0,5 -4,9 -9,9z"/>
   <path class="fil10" d="M1810 1851c0,76 -62,138 -138,138 -76,0 -138,-62 -138,-138 0,-77 62,-138 138,-138 76,0 138,61 138,138z"/>
   <path class="fil4" d="M1739 1851c0,37 -30,67 -67,67 -37,0 -67,-30 -67,-67 0,-37 30,-67 67,-67 37,0 67,30 67,67z"/>
   <path class="fil11" d="M3203 1701l-1256 0c-19,0 -35,-16 -35,-35l0 -776 1291 0 0 811z"/>
   <path class="fil12" d="M3193 856l-1308 0c-5,0 -10,4 -10,10l0 21c0,6 5,10 10,10l1308 0c6,0 10,-4 10,-10l0 -21c0,-6 -4,-10 -10,-10z"/>
   <path class="fil12" d="M3111 1032l-1106 0c-5,0 -10,4 -10,9l0 23c0,5 5,9 10,9l1106 0c5,0 10,-4 10,-9l0 -23c0,-5 -5,-9 -10,-9z"/>
   <path class="fil12" d="M3111 1207l-1106 0c-5,0 -10,5 -10,10l0 22c0,6 5,10 10,10l1106 0c5,0 10,-4 10,-10l0 -22c0,-5 -5,-10 -10,-10z"/>
   <path class="fil12" d="M3111 1383l-1106 0c-5,0 -10,4 -10,10l0 22c0,5 5,10 10,10l1106 0c5,0 10,-5 10,-10l0 -22c0,-6 -5,-10 -10,-10z"/>
   <path class="fil12" d="M3111 1559l-1106 0c-5,0 -10,4 -10,9l0 23c0,5 5,9 10,9l1106 0c5,0 10,-4 10,-9l0 -23c0,-5 -5,-9 -10,-9z"/>
   <path class="fil13" d="M2838 1547l-162 0c-2,0 -4,2 -4,5l0 210c0,3 2,5 4,5l325 0c2,0 4,-2 4,-5l0 -210c0,-3 -2,-5 -4,-5l-163 0z"/>
   <path class="fil14" d="M3169 1769l-104 0c-1,0 -3,2 -3,5l0 210c0,3 2,5 3,5l207 0c2,0 3,-2 3,-5l0 -210c0,-3 -1,-5 -3,-5l-103 0z"/>
   <polygon class="fil15" points="2223,2554 2275,2554 2285,1966 2147,1966 "/>
   <polygon class="fil16" points="2285,1966 2294,2554 2346,2554 2422,1966 "/>
   <path class="fil17" d="M2224 2554l50 0c0,0 6,38 3,48 -4,9 -10,16 -14,16 -3,0 -7,0 -14,14 -8,14 -40,53 -75,34 -35,-20 20,-58 31,-74 11,-16 19,-38 19,-38z"/>
   <path class="fil18" d="M2249 2575c11,0 21,-10 21,-21l-42 0c0,11 10,21 21,21z"/>
   <path class="fil17" d="M2345 2554l-50 0c0,0 -7,38 -3,48 4,9 10,16 13,16 3,0 8,0 15,14 7,14 40,53 74,34 35,-20 -19,-58 -30,-74 -11,-16 -19,-38 -19,-38z"/>
   <path class="fil18" d="M2320 2575c-12,0 -21,-10 -21,-21l41 0c0,11 -9,21 -20,21z"/>
   <path class="fil19" d="M2394 1455c-38,-11 -71,-20 -71,-20l-39 0 0 0 -41 0c0,0 -31,9 -69,20 -55,16 -89,38 -107,134l217 0 0 0 217 0c-18,-96 -52,-118 -107,-134z"/>
   <path class="fil20" d="M2056 1636l-25 102c-2,8 -2,17 2,25l35 75 35 0 0 -178 -47 -24z"/>
   <polygon class="fil21" points="2285,1861 2125,1869 2134,1989 2433,1989 2444,1869 "/>
   <path class="fil22" d="M2513 1636l25 102c2,8 2,17 -2,25l-35 75 -35 0 0 -178 47 -24z"/>
   <path class="fil23" d="M2285 1606l-226 0c-4,0 -7,3 -7,7l0 279c0,3 3,6 7,6l451 0c4,0 7,-3 7,-6l0 -279c0,-4 -3,-7 -7,-7l-225 0z"/>
   <path class="fil24" d="M2285 1573l-240 0c-4,0 -7,3 -7,7l0 25c0,4 3,7 7,7l479 0c4,0 7,-3 7,-7l0 -25c0,-4 -3,-7 -7,-7l-239 0z"/>
   <path class="fil4" d="M2214 1674l-116 0c-2,0 -4,-2 -4,-4l0 -30c0,-2 2,-4 4,-4l116 0c2,0 4,2 4,4l0 30c0,2 -2,4 -4,4z"/>
   <polygon class="fil25" points="2105,1668 2111,1668 2111,1642 2105,1642 "/>
   <polygon class="fil25" points="2118,1668 2125,1668 2125,1642 2118,1642 "/>
   <polygon class="fil25" points="2132,1668 2139,1668 2139,1642 2132,1642 "/>
   <polygon class="fil25" points="2146,1668 2152,1668 2152,1642 2146,1642 "/>
   <polygon class="fil25" points="2160,1668 2166,1668 2166,1642 2160,1642 "/>
   <polygon class="fil25" points="2173,1668 2180,1668 2180,1642 2173,1642 "/>
   <polygon class="fil25" points="2187,1668 2194,1668 2194,1642 2187,1642 "/>
   <polygon class="fil25" points="2201,1668 2207,1668 2207,1642 2201,1642 "/>
   <path class="fil26" d="M2283 1467l0 0c-22,0 -41,-19 -41,-41l0 -42 83 0 0 42c0,22 -19,41 -42,41z"/>
   <path class="fil27" d="M2207 1349c0,0 3,20 19,35 17,16 0,-25 0,-25l-6 -12 -13 2z"/>
   <path class="fil27" d="M2216 1276c-18,0 -27,23 0,81l20 16 37 -82 -57 -15z"/>
   <path class="fil27" d="M2360 1350c0,0 -3,19 -19,35 -17,15 0,-26 0,-26l6 -11 13 2z"/>
   <path class="fil27" d="M2352 1276c18,0 27,23 0,81l-21 16 -36 -82 57 -15z"/>
   <path class="fil28" d="M2325 1396l0 24c0,3 0,7 -1,10 0,0 -1,1 -1,1 -48,8 -68,-8 -81,-25l13 -12 70 2z"/>
   <path class="fil29" d="M2344 1247l-122 0 0 114c0,34 27,61 61,61l1 0c33,0 60,-27 60,-61l0 -114z"/>
   <path class="fil30" d="M2222 1342c-6,-10 -10,-18 -20,-14 -10,3 -9,22 -2,29 9,9 22,3 22,3l0 -18z"/>
   <path class="fil31" d="M2344 1342c7,-10 11,-18 20,-14 11,3 9,22 3,29 -9,9 -23,3 -23,3l0 -18z"/>
   <path class="fil32" d="M2284 1250l0 0 0 0c-69,0 -82,70 -82,70 25,-48 81,-44 81,-44l1 0 0 0c0,0 56,-4 82,44 0,0 -13,-70 -82,-70z"/>
   <path class="fil33" d="M2369 1254c-4,-29 -48,-62 -85,-62l0 0 0 0c-38,0 -82,33 -86,62 -4,31 4,66 4,66 0,0 13,-70 82,-70 69,0 82,70 82,70 0,0 8,-35 3,-66z"/>
  </g>
 </g>
</svg>
