<?xml version="1.0" encoding="UTF-8"?>
<!DOCTYPE svg PUBLIC "-//W3C//DTD SVG 1.1//EN" "http://www.w3.org/Graphics/SVG/1.1/DTD/svg11.dtd">
<!-- Creator: CorelDRAW X7 -->
<svg xmlns="http://www.w3.org/2000/svg" xml:space="preserve" width="4.434in" height="4.08699in" version="1.1" style="shape-rendering:geometricPrecision; text-rendering:geometricPrecision; image-rendering:optimizeQuality; fill-rule:evenodd; clip-rule:evenodd"
viewBox="0 0 4434 4087"
 xmlns:xlink="http://www.w3.org/1999/xlink">
 <defs>
  <style type="text/css">
   <![CDATA[
    .str0 {stroke:#0B2C4E;stroke-width:208.335}
    .fil14 {fill:none;fill-rule:nonzero}
    .fil7 {fill:#061E33;fill-rule:nonzero}
    .fil5 {fill:#0B2C4E;fill-rule:nonzero}
    .fil15 {fill:#73B7D4;fill-rule:nonzero}
    .fil13 {fill:#8070F1;fill-rule:nonzero}
    .fil4 {fill:#9B86FF;fill-rule:nonzero}
    .fil18 {fill:#E1F3FC;fill-rule:nonzero}
    .fil11 {fill:#E5785B;fill-rule:nonzero}
    .fil6 {fill:#EEB125;fill-rule:nonzero}
    .fil0 {fill:#F4F4FE;fill-rule:nonzero}
    .fil10 {fill:#F7A17A;fill-rule:nonzero}
    .fil16 {fill:#FF005D;fill-rule:nonzero}
    .fil17 {fill:#FF005D;fill-rule:nonzero}
    .fil3 {fill:#FFC4DA;fill-rule:nonzero}
    .fil9 {fill:#FFC63C;fill-rule:nonzero}
    .fil1 {fill:#FFFDB8;fill-rule:nonzero}
    .fil2 {fill:#FFFDB8;fill-rule:nonzero}
    .fil8 {fill:white;fill-rule:nonzero}
    .fil12 {fill:white;fill-rule:nonzero;fill-opacity:0.200000}
   ]]>
  </style>
 </defs>
 <g id="Layer_x0020_1">
  <metadata id="CorelCorpID_0Corel-Layer"/>
  <g id="_898467920">
   <g>
    <path class="fil0" d="M3061 3643l-4 -7c110,-64 238,-69 363,-74 50,-2 103,-4 153,-10 234,-29 406,-180 461,-403 50,-203 -6,-421 -146,-568 -7,-7 -15,-15 -22,-22 -48,-51 -98,-103 -134,-165 -23,-39 -38,-81 -45,-126 -6,-41 -5,-85 2,-129 14,-81 50,-164 104,-241 14,-21 29,-41 44,-61 47,-63 95,-129 126,-204 37,-90 45,-205 24,-324 -34,-194 -144,-369 -293,-467 -193,-128 -397,-100 -613,-71 -90,13 -183,25 -274,25 -24,0 -48,-1 -71,-3 -42,-3 -84,-11 -125,-22 -41,-11 -81,-26 -119,-45 -79,-39 -147,-91 -203,-157 -161,-186 -381,-289 -592,-289 -92,0 -183,20 -266,60 -167,81 -304,234 -376,421 -41,106 -50,222 -58,333 -7,105 -15,213 -49,315 -20,57 -48,114 -83,164 -38,53 -81,97 -128,131 -129,91 -216,179 -275,275 -86,140 -105,306 -50,432 39,91 115,149 189,205 38,29 77,59 111,93 37,38 64,78 79,121 14,36 20,78 20,127 -1,58 -11,117 -22,175 -17,97 -35,197 -3,293 22,63 75,109 160,136 59,19 132,29 222,30 26,1 54,1 80,0 104,-1 212,-1 310,34l-2 7c-98,-35 -205,-34 -308,-33 -26,0 -54,0 -80,0 -91,-1 -165,-11 -225,-31 -87,-28 -142,-75 -164,-140 -33,-98 -15,-200 3,-298 10,-57 21,-116 21,-173 0,-48 -6,-89 -19,-124 -34,-94 -109,-151 -188,-211 -74,-57 -151,-115 -191,-208 -15,-34 -25,-71 -29,-109 -4,-37 -4,-75 1,-114 10,-74 37,-149 78,-216 60,-97 148,-185 277,-277 92,-65 168,-172 208,-292 34,-101 42,-208 50,-312 8,-112 16,-228 57,-336 73,-188 212,-343 381,-425 73,-35 151,-55 232,-60 77,-4 156,5 234,28 151,45 293,138 401,263 109,127 270,208 441,222 114,9 231,-7 344,-22 104,-15 212,-29 315,-24 56,3 106,11 154,25 54,16 102,39 150,70 74,50 141,120 193,204 50,81 86,174 103,269 10,57 13,113 10,166 -4,59 -15,114 -35,162 -31,76 -80,142 -127,206 -14,19 -30,40 -44,60 -118,168 -141,351 -61,488 36,61 86,113 134,163 7,8 14,15 21,23 70,73 121,166 147,269 25,100 26,206 1,306 -14,56 -35,109 -64,156 -28,47 -63,88 -104,123 -81,70 -184,115 -299,129 -50,6 -103,9 -154,11 -123,4 -251,9 -359,73z"/>
   </g>
   <path class="fil1" d="M566 1838c-94,135 -167,317 -116,486 50,168 211,271 282,431 39,90 40,189 42,286 2,126 -23,261 63,368 50,63 127,101 204,125 155,50 318,73 456,166 226,153 504,207 774,190 137,-8 273,-34 404,-74 152,-46 288,-129 441,-173 266,-76 629,-77 785,-346 105,-181 141,-405 59,-602 -38,-94 -112,-166 -154,-258 -58,-127 -74,-272 -35,-407 1,-6 3,-11 5,-17 40,-126 122,-235 156,-364 70,-265 -85,-546 -287,-717 -85,-71 -179,-130 -281,-163 -283,-93 -597,14 -881,-76 -217,-69 -396,-248 -618,-299 -170,-40 -354,2 -499,106 -145,104 -250,267 -298,446 -44,166 -43,349 -121,500 -68,129 -193,198 -294,292 -31,29 -60,63 -87,100z"/>
   <path class="fil2" d="M3935 502c3,-15 -17,-46 -39,-45 -9,0 -18,2 -26,2 -23,-1 -35,-20 -44,-35 -9,-15 -27,-32 -50,-28 -32,6 -49,49 -86,16 -24,-21 -26,-50 -53,-71 -19,-14 -50,-22 -75,-14 -33,10 -46,42 -81,48 -39,6 -66,-23 -79,-45 -15,-25 -21,-53 -33,-80 -12,-24 -36,-57 -79,-56 -37,0 -53,24 -71,42 -23,24 -71,109 -125,99 -22,-4 -32,-21 -51,-29 -31,-12 -70,5 -88,26 -19,21 -26,46 -47,66 -5,5 -12,10 -20,12 -29,8 -57,-17 -88,-18 -21,-2 -41,8 -54,21 -12,12 -19,27 -28,40 -3,4 -6,8 -11,10 -13,8 -33,1 -49,-1 -42,-8 -89,11 -100,40l1377 0z"/>
   <path class="fil2" d="M868 1146c2,-7 -9,-23 -20,-23 -4,0 -9,1 -13,1 -12,0 -18,-10 -23,-17 -5,-8 -14,-17 -25,-15 -17,3 -26,25 -45,8 -12,-10 -13,-26 -27,-36 -10,-7 -26,-12 -39,-8 -17,6 -23,22 -41,25 -20,3 -34,-12 -41,-23 -7,-13 -10,-27 -17,-41 -6,-13 -18,-29 -41,-29 -18,0 -27,12 -36,22 -12,12 -37,56 -64,50 -11,-2 -17,-10 -26,-14 -16,-6 -36,2 -46,13 -9,11 -13,24 -24,34 -2,2 -6,5 -10,6 -15,4 -29,-8 -45,-9 -11,-1 -21,4 -28,11 -6,6 -10,13 -15,20 -1,2 -2,4 -5,6 -7,3 -17,0 -25,-1 -22,-4 -46,6 -52,20l708 0z"/>
   <g>
    <g>
     <g>
      <polygon class="fil3" points="3795,3726 4114,3726 4114,2292 3795,2292 "/>
      <polygon class="fil3" points="3795,3726 3315,3726 3315,2732 3795,2732 "/>
      <polygon class="fil3" points="4400,3726 3920,3726 3920,3028 4400,3028 "/>
      <polygon class="fil3" points="3795,2292 4054,2292 4054,2222 3795,2222 "/>
      <polygon class="fil3" points="3795,2222 4007,2222 4007,2152 3795,2152 "/>
      <polygon class="fil3" points="3795,2152 3962,2152 3962,2082 3795,2082 "/>
     </g>
     <g>
      <polygon class="fil3" points="2538,3726 2856,3726 2856,2292 2538,2292 "/>
      <polygon class="fil3" points="3409,3726 3728,3726 3728,1828 3409,1828 "/>
      <polygon class="fil3" points="1901,3726 2538,3726 2538,3171 1901,3171 "/>
      <polygon class="fil3" points="2697,3726 3337,3726 3337,1604 2697,1604 "/>
      <polygon class="fil3" points="2538,2292 2797,2292 2797,2222 2538,2222 "/>
      <polygon class="fil3" points="2538,2222 2750,2222 2750,2152 2538,2152 "/>
      <polygon class="fil3" points="2538,2152 2705,2152 2705,2082 2538,2082 "/>
     </g>
    </g>
    <g>
     <g>
      <polygon class="fil3" points="1928,3726 2246,3726 2246,2292 1928,2292 "/>
      <polygon class="fil3" points="2565,3726 2246,3726 2246,2534 2565,2534 "/>
      <polygon class="fil3" points="1928,3726 1447,3726 1447,1971 1928,1971 "/>
      <polygon class="fil3" points="1928,2292 2186,2292 2186,2222 1928,2222 "/>
      <polygon class="fil3" points="1928,2222 2139,2222 2139,2152 1928,2152 "/>
      <polygon class="fil3" points="1928,2152 2095,2152 2095,2082 1928,2082 "/>
     </g>
     <g>
      <polygon class="fil3" points="671,3726 989,3726 989,2292 671,2292 "/>
      <polygon class="fil3" points="352,3726 671,3726 671,2534 352,2534 "/>
      <polygon class="fil3" points="1064,3726 1383,3726 1383,2336 1064,2336 "/>
      <polygon class="fil3" points="34,3726 352,3726 352,3034 34,3034 "/>
      <polygon class="fil3" points="830,3726 1470,3726 1470,2679 830,2679 "/>
      <polygon class="fil3" points="671,2292 929,2292 929,2222 671,2222 "/>
      <polygon class="fil3" points="327,3492 585,3492 585,3422 327,3422 "/>
      <polygon class="fil3" points="671,2222 882,2222 882,2152 671,2152 "/>
      <polygon class="fil3" points="671,2152 837,2152 837,2082 671,2082 "/>
     </g>
     <polygon class="fil3" points="2046,2739 2464,2739 2464,2669 2046,2669 "/>
     <polygon class="fil3" points="2046,2990 2464,2990 2464,2920 2046,2920 "/>
     <polygon class="fil3" points="2046,3241 2464,3241 2464,3171 2046,3171 "/>
     <polygon class="fil3" points="441,3241 860,3241 860,3171 441,3171 "/>
     <polygon class="fil3" points="441,3492 860,3492 860,3422 441,3422 "/>
    </g>
   </g>
   <path class="fil4" d="M1883 1931c-83,86 -8,294 125,264 142,-32 120,-254 -8,-290 -50,-15 -90,-1 -117,26z"/>
   <path class="fil5" d="M2542 2206c-31,31 -68,55 -111,65 -83,18 -161,-18 -230,-60 -74,-45 -148,-90 -217,-142 -50,-36 -101,-75 -132,-130 -36,-63 -38,-140 -31,-211 5,-48 -17,-91 -27,-137 -20,-90 0,-196 84,-248 43,-26 87,-22 132,-3 35,15 67,36 103,46 77,22 160,-8 236,-24 54,-11 114,-17 167,1 60,20 89,64 121,114 28,44 71,76 104,115 46,52 59,117 44,183 -22,98 -78,182 -127,268 -31,54 -68,117 -116,163z"/>
   <path class="fil6" d="M1926 3133c99,-153 161,-341 75,-514 -9,-18 -20,-37 -38,-43 -40,-13 -94,1 -129,21 -121,71 -195,204 -263,323 -70,123 -131,251 -202,374 -29,50 -58,101 -73,156 -14,49 -15,104 3,152 80,205 298,-47 365,-123 95,-108 183,-225 262,-346z"/>
   <path class="fil7" d="M2422 2204c-11,11 -24,21 -38,28 -36,18 -79,17 -118,5 -39,-12 -73,-34 -106,-57 -90,-63 -200,-147 -254,-244 -32,-60 -57,-131 -25,-196 27,-56 81,-97 144,-103 5,-1 11,-1 15,1 6,3 9,8 12,13 23,37 41,77 68,111 30,37 68,65 108,89 66,40 138,69 199,115 45,33 46,107 35,158 -6,30 -20,58 -40,80z"/>
   <g>
    <path class="fil7" d="M2922 2937c31,-115 47,-233 -24,-311 -32,-35 -90,-60 -137,-78 -91,-34 -185,-80 -283,-95 -104,-15 -219,-25 -322,-2 -65,14 -127,40 -185,69 -79,38 -135,64 -160,142 -28,87 -45,177 -54,267 -28,264 9,528 8,792 0,26 0,53 13,76 26,46 97,46 147,46 168,0 335,0 503,0 70,0 123,7 188,18 55,10 103,-14 129,-58 25,-42 27,-91 30,-138 10,-182 40,-364 89,-542 14,-51 39,-117 58,-186z"/>
   </g>
   <path class="fil6" d="M2516 2602c26,-41 37,-90 24,-135 -21,-6 -41,-10 -62,-14 -104,-15 -219,-25 -322,-2 -11,2 -23,5 -35,8 -12,12 -23,26 -30,42 -19,43 -13,92 12,130 23,35 60,61 102,71 68,15 147,13 211,-13 40,-16 77,-48 100,-87z"/>
   <path class="fil6" d="M1859 3834c6,3 12,6 18,8 17,1 34,1 48,1 168,0 335,0 503,0 70,0 123,7 188,18 55,10 103,-14 129,-58 25,-42 27,-91 30,-138 10,-182 40,-364 89,-542 8,-27 18,-58 29,-91 -4,-29 -13,-48 -29,-48 -5,0 -10,3 -14,6 -23,17 -36,46 -47,73 -35,84 -64,220 -136,279 -76,62 -164,92 -256,121 -160,52 -339,75 -474,181 -23,18 -44,38 -65,57 -19,18 -45,37 -56,61 -17,39 10,57 43,72z"/>
   <polygon class="fil8" points="34,3715 4398,3715 4398,3890 34,3890 "/>
   <path class="fil9" d="M3282 3211c26,46 51,92 76,138 50,94 144,302 -6,354 -76,26 -119,1 -169,-54 -188,-208 -349,-441 -476,-691 -48,-93 -174,-336 -21,-391 48,-18 104,-14 149,10 21,12 39,27 57,42 110,99 189,226 259,355 43,79 87,158 131,237z"/>
   <path class="fil9" d="M2519 3548c14,-3 27,-5 40,-7 64,-10 128,-22 192,-35 126,-27 253,-50 381,-63 14,-1 27,-2 41,-3 58,-4 118,-6 170,21 53,27 95,90 82,152 -9,43 -43,75 -81,92 -37,16 -78,19 -119,22 -131,9 -262,17 -393,26 -65,5 -129,9 -194,14 -62,4 -125,13 -187,13 -26,0 -56,-5 -78,-22 -30,-24 -49,-75 -52,-114 -1,-21 3,-46 19,-59 9,-6 20,-9 30,-11 50,-9 100,-18 149,-26z"/>
   <g>
    <polygon class="fil4" points="2012,3594 1391,3594 1391,3716 2012,3716 "/>
    <g>
     <path class="fil4" d="M1498 3606l-157 -798c-4,-21 -23,-37 -44,-37l-1043 0c-15,0 -28,8 -36,19l0 0 -48 57 43 -10 154 786c4,21 23,37 44,37l1042 0c29,0 50,-26 45,-54z"/>
     <path class="fil5" d="M364 3716l1042 0c28,0 49,-26 44,-54l-157 -798c-4,-21 -22,-36 -44,-36l-1042 0c-28,0 -50,26 -44,53l157 798c4,22 22,37 44,37z"/>
     <path class="fil4" d="M691 3252c10,54 61,97 115,97 54,0 89,-43 79,-97 -10,-54 -62,-98 -115,-98 -53,0 -88,44 -79,98z"/>
    </g>
   </g>
   <path class="fil10" d="M2371 3743c-31,6 -55,34 -86,43 -22,6 -45,3 -66,-5 -20,-7 -40,-11 -60,-18 -15,-5 -36,-15 -53,-12 -44,9 -87,41 -127,61 -9,4 -19,9 -29,7 -9,-2 -18,-14 -12,-22 -11,11 -26,32 -45,24 -7,-4 -12,-14 -8,-21 -6,7 -13,14 -22,18 -8,3 -20,2 -25,-6 -2,-4 -3,-8 -3,-13 -1,-15 4,-30 10,-44 31,-68 102,-119 162,-159 11,-7 21,-15 34,-18 11,-4 22,-4 34,-4 74,0 149,12 220,35 15,6 32,1 47,-2 11,-2 23,-4 34,-1 13,4 22,14 30,24 13,19 24,45 22,69 -1,18 -2,38 -24,42 -9,1 -18,0 -26,1 -3,0 -5,1 -7,1z"/>
   <path class="fil10" d="M2384 2640c46,-14 83,-43 98,-88 12,-41 -8,-87 -11,-128 -4,-39 -4,-79 -2,-119 3,-36 6,-74 1,-111 -4,-21 -15,-17 -36,-25 -21,-9 -45,-9 -68,-9 -47,1 -169,-3 -198,38 -13,19 -14,43 -15,65 -1,28 -5,63 -10,101 -2,17 -1,33 -3,50 -3,19 -10,37 -17,55 -23,68 -1,132 72,163 53,23 128,28 189,8z"/>
   <path class="fil11" d="M2469 2194c-3,-21 -14,-17 -35,-25 -21,-9 -45,-9 -68,-9 -47,1 -169,-3 -198,38 -13,19 -14,43 -15,65 -1,28 -6,63 -10,101 -2,17 -1,33 -3,50 -3,14 -7,28 -12,42 45,17 97,21 144,9 85,-21 150,-74 196,-143 1,-6 1,-11 1,-17 2,-36 6,-74 0,-111z"/>
   <path class="fil10" d="M2537 1927c0,-63 -9,-123 -25,-172 -69,-213 -335,-265 -495,-112 -178,170 -110,577 78,720 50,39 119,52 180,36 184,-50 264,-277 262,-472z"/>
   <path class="fil11" d="M2512 1755c-69,-213 -335,-265 -495,-112 -20,19 -37,41 -51,66 10,8 20,15 28,20 68,41 141,71 217,91 33,8 67,15 94,36 15,12 27,27 36,44 12,20 20,43 27,65 17,48 24,99 31,149 1,6 1,11 5,15 4,3 9,4 14,4 30,-1 44,-29 67,-44 14,-9 28,-18 41,-28 8,-45 12,-90 11,-134 0,-63 -9,-123 -25,-172z"/>
   <path class="fil5" d="M2371 1891c9,22 14,46 19,69 10,50 10,101 11,152 0,5 0,11 3,15 3,4 9,5 14,6 29,3 47,-23 71,-35 26,-12 52,-25 74,-42 64,-50 49,-133 47,-206 -1,-40 -2,-81 -14,-119 -13,-42 -38,-80 -68,-112 -86,-93 -216,-141 -342,-133 -62,4 -132,30 -177,75 -38,39 9,91 40,116 62,49 131,89 204,118 31,13 64,24 88,48 14,14 23,30 30,48z"/>
   <path class="fil10" d="M2503 1932c81,-45 106,68 92,124 -5,24 -15,46 -29,66 -20,25 -75,68 -107,40 -15,-13 -16,-35 -17,-54 -1,-52 5,-146 61,-176z"/>
   <g>
    <g>
     <g>
      <path class="fil8" d="M3684 3239c12,-24 10,-48 3,-71 -7,-23 -20,-43 -33,-65 -14,-21 -28,-45 -36,-73 -9,-29 -6,-61 2,-88 17,-55 52,-95 76,-137 12,-21 22,-42 26,-66 4,-23 3,-48 -9,-72 20,18 30,46 31,73 1,28 -6,56 -16,81 -21,50 -53,90 -65,134 -7,22 -9,43 -4,64 4,22 16,44 26,67 11,24 21,50 23,78 3,27 -3,57 -24,75z"/>
     </g>
    </g>
    <g>
     <g>
      <path class="fil4" d="M3768 3713l-146 0c-45,0 -82,-36 -82,-82l0 -361 310 0 0 361c0,46 -37,82 -82,82z"/>
      <path class="fil4" d="M3872 3370c-75,0 -135,61 -135,136 0,76 60,137 135,137 74,0 134,-61 134,-137 0,-75 -60,-136 -134,-136zm0 224l0 0c-48,0 -87,-39 -87,-88 0,-48 39,-87 87,-87 47,0 86,39 86,87 0,49 -39,88 -86,88z"/>
      <path class="fil12" d="M3587 3545c-10,0 -17,-8 -17,-17l0 -216c0,-9 7,-17 17,-17 9,0 16,8 16,17l0 216c0,9 -7,17 -16,17z"/>
      <path class="fil13" d="M3778 3270l0 365c0,43 -35,78 -78,78l72 0c43,0 78,-35 78,-78l0 -365 -72 0z"/>
     </g>
    </g>
   </g>
   <path class="fil14 str0" d="M1848 1705c-35,-98 -105,-177 -65,-288 24,-65 85,-107 154,-108 32,-1 65,8 93,24 33,19 55,50 94,61 92,25 187,-45 275,-62 86,-16 179,13 221,96 17,32 24,70 46,99 37,50 108,66 137,120 48,88 -50,216 -99,283"/>
   <g>
    <path class="fil13" d="M2236 2304c-20,0 -40,-1 -60,-4l4 -25c73,11 146,1 211,-29 18,-8 33,-17 46,-26 24,-18 44,-40 59,-66l22 13c-17,28 -40,53 -67,73 -14,10 -30,19 -49,28 -52,24 -108,36 -166,36z"/>
   </g>
   <g>
    <path class="fil13" d="M2104 2256c30,-26 97,-24 119,3 16,20 11,45 -7,61 -21,20 -47,19 -74,13 -33,-7 -73,-46 -38,-77z"/>
   </g>
   <g>
    <path class="fil15" d="M2079 1481l10 1 3 0c1,0 2,0 3,0l5 0 6 0 2 0 3 0 11 -1c14,-1 28,-2 42,-4 15,-2 29,-5 43,-7 7,-1 14,-2 21,-3l11 -2 11 -2c3,0 7,0 10,-1 4,0 8,-1 11,-1l11 -1 11 -1c2,0 4,0 5,0l6 0 5 0 3 0 3 0c7,0 14,0 22,1 3,0 7,0 11,0 3,1 7,1 11,2 3,0 7,1 10,2l6 1c2,0 3,1 5,1 15,4 29,9 42,16 13,8 24,18 34,30 9,11 17,25 20,40 1,4 2,7 2,11 1,4 1,8 1,12 -1,8 -2,15 -4,22 -1,7 -3,14 -4,21 -1,3 -1,7 -1,10 0,1 0,2 0,2l0 3 0 2c0,1 0,2 0,3 1,7 2,14 5,20 2,7 4,13 7,20 3,6 7,12 10,19 4,6 7,12 10,19 4,6 7,13 10,20 2,6 5,13 6,20 2,7 3,15 3,22 0,7 -2,14 -4,21 2,-7 2,-14 2,-21 0,-7 -2,-14 -4,-21 -4,-13 -10,-26 -18,-39 -7,-12 -15,-24 -21,-37 -4,-6 -7,-13 -9,-20 -3,-7 -5,-14 -6,-22 0,-1 0,-2 0,-3l0 -3 -1 -2c0,-1 0,-2 0,-3 0,-4 1,-8 1,-12 1,-7 3,-14 4,-21 2,-7 3,-14 3,-20 0,-4 0,-7 0,-11 -1,-3 -1,-6 -2,-9 -4,-13 -10,-26 -19,-36 -9,-11 -19,-20 -31,-27 -12,-6 -25,-11 -39,-15 -1,0 -3,-1 -5,-1l-5 -1c-3,-1 -7,-2 -10,-2 -4,-1 -7,-1 -11,-2 -3,0 -7,0 -10,-1 -7,0 -14,-1 -21,-1l-3 0 -3 0 -5 0 -5 0c-2,0 -4,0 -6,0l-10 1 -11 1c-4,0 -7,0 -11,0 -3,1 -7,1 -10,1 -15,2 -29,4 -43,6 -14,1 -29,3 -43,4l-11 1c-3,1 -7,1 -11,1l-5 0 -5 0 -6 0c-2,0 -3,1 -5,0 -15,0 -29,-1 -43,-3z"/>
   </g>
   <path class="fil4" d="M2537 1900c-115,29 -160,246 -31,290 138,46 235,-154 144,-252 -35,-38 -76,-48 -113,-38z"/>
   <path class="fil13" d="M2575 1927c-80,13 -129,182 -47,229 88,50 171,-101 119,-187 -20,-34 -47,-46 -72,-42z"/>
   <g>
    <path class="fil4" d="M2591 1915l-31 -4c21,-180 12,-410 -149,-484 -76,-35 -145,-60 -269,-35 -18,-3 -32,-10 -32,-10 112,-54 232,-21 314,17 178,81 189,325 167,516z"/>
   </g>
   <path class="fil16" d="M3043 1904l1051 0c60,0 109,-49 109,-109l0 -553c0,-60 -49,-109 -109,-109l-1051 0c-60,0 -109,49 -109,109l0 553c0,60 49,109 109,109z"/>
   <polygon class="fil17" points="3101,2106 3101,1752 3378,1904 "/>
   <path class="fil18" d="M3722 1553l-561 0c-19,0 -34,-15 -34,-34l0 0c0,-18 15,-33 34,-33l561 0c18,0 33,15 33,33l0 0c0,19 -15,34 -33,34z"/>
   <path class="fil18" d="M3976 1553l-139 0c-18,0 -33,-15 -33,-34 0,-18 15,-33 33,-33l139 0c18,0 33,15 33,33l0 0c0,19 -15,34 -33,34z"/>
   <path class="fil18" d="M3415 1333l561 0c18,0 33,15 33,34l0 0c0,18 -15,33 -33,33l-561 0c-19,0 -34,-15 -34,-33l0 0c0,-19 15,-34 34,-34z"/>
   <path class="fil18" d="M3161 1333l138 0c19,0 34,15 34,34l0 0c0,18 -15,33 -34,33l-138 0c-19,0 -34,-15 -34,-33l0 0c0,-19 15,-34 34,-34z"/>
   <path class="fil18" d="M3535 1693l-374 0c-19,0 -34,-16 -34,-34 0,-19 15,-34 34,-34l374 0c18,0 33,15 33,34 0,18 -15,34 -33,34z"/>
  </g>
 </g>
</svg>
