<?xml version="1.0" encoding="UTF-8"?>
<!DOCTYPE svg PUBLIC "-//W3C//DTD SVG 1.1//EN" "http://www.w3.org/Graphics/SVG/1.1/DTD/svg11.dtd">
<!-- Creator: CorelDRAW X7 -->
<svg xmlns="http://www.w3.org/2000/svg" xml:space="preserve" width="0.266661in" height="0.266661in" version="1.1" style="shape-rendering:geometricPrecision; text-rendering:geometricPrecision; image-rendering:optimizeQuality; fill-rule:evenodd; clip-rule:evenodd"
viewBox="0 0 267 267"
 xmlns:xlink="http://www.w3.org/1999/xlink">
 <defs>
  <style type="text/css">
   <![CDATA[
    .fil0 {fill:#FEFEFE}
   ]]>
  </style>
 </defs>
 <g id="Layer_x0020_1">
  <metadata id="CorelCorpID_0Corel-Layer"/>
  <path class="fil0" d="M43 16l181 0c14,0 26,12 26,27l0 181c0,14 -12,26 -26,26l-181 0c-15,0 -27,-12 -27,-26l0 -181c0,-15 12,-27 27,-27zm89 229l40 0 0 -100 28 0 3 -33 -31 0c0,0 0,-12 0,-19 0,-8 1,-11 9,-11 6,0 22,0 22,0l0 -35c0,0 -23,0 -28,0 -30,0 -43,13 -43,38 0,22 0,27 0,27l-21 0 0 34 21 0 0 99z"/>
 </g>
</svg>
