<?xml version="1.0" encoding="UTF-8"?>
<!DOCTYPE svg PUBLIC "-//W3C//DTD SVG 1.1//EN" "http://www.w3.org/Graphics/SVG/1.1/DTD/svg11.dtd">
<!-- Creator: CorelDRAW X7 -->
<svg xmlns="http://www.w3.org/2000/svg" xml:space="preserve" width="19.789in" height="3.3in" version="1.1" style="shape-rendering:geometricPrecision; text-rendering:geometricPrecision; image-rendering:optimizeQuality; fill-rule:evenodd; clip-rule:evenodd"
viewBox="0 0 19789 3300"
 xmlns:xlink="http://www.w3.org/1999/xlink">
 <defs>
  <style type="text/css">
   <![CDATA[
    .fil0 {fill:url(#id0);fill-rule:nonzero}
   ]]>
  </style>
  <radialGradient id="id0" gradientUnits="userSpaceOnUse" gradientTransform="matrix(-1 -0 -0 1.17049 33245 -218)" cx="16622.7" cy="1277.11" r="21000" fx="16622.7" fy="1277.11">
   <stop offset="0" style="stop-opacity:1; stop-color:#FBFF00"/>
   <stop offset="0.431373" style="stop-opacity:1; stop-color:#F8E909"/>
   <stop offset="1" style="stop-opacity:1; stop-color:#F5D312"/>
  </radialGradient>
 </defs>
 <g id="Layer_x0020_1">
  <metadata id="CorelCorpID_0Corel-Layer"/>
  <path class="fil0" d="M0 26l0 2906c595,181 2030,533 3077,81 218,-94 459,-203 718,-320 1351,-608 3178,-1405 4565,-1128 1652,330 2278,-539 3852,139 119,52 235,98 348,141 1307,491 2300,424 3825,38l0 0c98,-25 198,-51 300,-78 1554,-416 2491,-318 3104,7l0 -1786 -19789 0z"/>
 </g>
</svg>
