<?xml version="1.0" encoding="UTF-8"?>
<!DOCTYPE svg PUBLIC "-//W3C//DTD SVG 1.1//EN" "http://www.w3.org/Graphics/SVG/1.1/DTD/svg11.dtd">
<!-- Creator: CorelDRAW X7 -->
<svg xmlns="http://www.w3.org/2000/svg" xml:space="preserve" width="0.266661in" height="0.266661in" version="1.1" style="shape-rendering:geometricPrecision; text-rendering:geometricPrecision; image-rendering:optimizeQuality; fill-rule:evenodd; clip-rule:evenodd"
viewBox="0 0 267 267"
 xmlns:xlink="http://www.w3.org/1999/xlink">
 <defs>
  <style type="text/css">
   <![CDATA[
    .fil0 {fill:#FEFEFE;fill-rule:nonzero}
   ]]>
  </style>
 </defs>
 <g id="Layer_x0020_1">
  <metadata id="CorelCorpID_0Corel-Layer"/>
  <g id="_852500512">
   <path class="fil0" d="M133 9c-34,0 -38,1 -51,1 -13,1 -22,3 -30,6 -8,3 -15,7 -22,14 -7,7 -11,14 -14,22 -3,8 -5,17 -6,30 -1,14 -1,18 -1,51 0,34 0,38 1,51 1,14 3,23 6,30 3,9 7,16 14,22 7,7 14,11 22,15 8,3 17,5 30,5 13,1 17,1 51,1 34,0 38,0 51,-1 14,0 23,-2 30,-5 9,-4 16,-8 23,-15 6,-6 10,-13 14,-22 3,-7 5,-16 6,-30 0,-13 0,-17 0,-51 0,-33 0,-37 0,-51 -1,-13 -3,-22 -6,-30 -4,-8 -8,-15 -14,-22 -7,-7 -14,-11 -23,-14 -7,-3 -16,-5 -30,-6 -13,0 -17,-1 -51,-1zm0 23c33,0 37,0 50,0 13,1 19,3 24,5 5,2 9,5 14,9 4,4 7,9 9,14 2,5 4,11 4,23 1,13 1,17 1,50 0,33 0,37 -1,50 0,12 -2,19 -4,23 -2,6 -5,10 -9,15 -5,4 -9,7 -14,9 -5,2 -11,4 -24,4 -13,1 -17,1 -50,1 -33,0 -37,0 -50,-1 -12,0 -18,-2 -23,-4 -5,-2 -10,-5 -14,-9 -4,-5 -7,-9 -10,-15 -1,-4 -3,-11 -3,-23 -1,-13 -1,-17 -1,-50 0,-33 0,-37 1,-50 0,-12 2,-18 3,-23 3,-5 6,-10 10,-14 4,-4 9,-7 14,-9 5,-2 11,-4 23,-5 13,0 17,0 50,0z"/>
   <path class="fil0" d="M133 175c-22,0 -41,-19 -41,-42 0,-22 19,-41 41,-41 23,0 42,19 42,41 0,23 -19,42 -42,42zm0 -105c-35,0 -63,28 -63,63 0,35 28,64 63,64 36,0 64,-29 64,-64 0,-35 -28,-63 -64,-63z"/>
   <path class="fil0" d="M214 67c0,8 -6,15 -14,15 -9,0 -16,-7 -16,-15 0,-8 7,-15 16,-15 8,0 14,7 14,15z"/>
  </g>
 </g>
</svg>
