<?xml version="1.0" encoding="UTF-8"?>
<!DOCTYPE svg PUBLIC "-//W3C//DTD SVG 1.1//EN" "http://www.w3.org/Graphics/SVG/1.1/DTD/svg11.dtd">
<!-- Creator: CorelDRAW X7 -->
<svg xmlns="http://www.w3.org/2000/svg" xml:space="preserve" width="4.434in" height="4.08699in" version="1.1" style="shape-rendering:geometricPrecision; text-rendering:geometricPrecision; image-rendering:optimizeQuality; fill-rule:evenodd; clip-rule:evenodd"
viewBox="0 0 4434 4087"
 xmlns:xlink="http://www.w3.org/1999/xlink">
 <defs>
  <style type="text/css">
   <![CDATA[
    .fil1 {fill:#0020CE;fill-rule:nonzero}
    .fil2 {fill:#0022B6;fill-rule:nonzero}
    .fil19 {fill:#131016;fill-rule:nonzero}
    .fil16 {fill:#151319;fill-rule:nonzero}
    .fil0 {fill:#19171D;fill-rule:nonzero}
    .fil13 {fill:#1D1B22;fill-rule:nonzero}
    .fil7 {fill:#5A0BCE;fill-rule:nonzero}
    .fil6 {fill:#6F11E1;fill-rule:nonzero}
    .fil3 {fill:#A8A6E2;fill-rule:nonzero}
    .fil4 {fill:#C1BBF6;fill-rule:nonzero}
    .fil12 {fill:#C6D8D5;fill-rule:nonzero}
    .fil18 {fill:#CECEE9;fill-rule:nonzero}
    .fil8 {fill:#DDCAAF;fill-rule:nonzero}
    .fil14 {fill:#DDCBB1;fill-rule:nonzero}
    .fil17 {fill:#DEDDF1;fill-rule:nonzero}
    .fil11 {fill:#DFE5E4;fill-rule:nonzero}
    .fil5 {fill:#E6D5B8;fill-rule:nonzero}
    .fil10 {fill:#F64527;fill-rule:nonzero}
    .fil9 {fill:#FE5A3A;fill-rule:nonzero}
    .fil15 {fill:white;fill-rule:nonzero}
   ]]>
  </style>
 </defs>
 <g id="Layer_x0020_1">
  <metadata id="CorelCorpID_0Corel-Layer"/>
  <g id="_970217824">
   <g>
    <g>
     <g>
      <g>
       <path class="fil0" d="M3169 2701l-1526 0 0 -802c0,-420 342,-763 763,-763 421,0 763,343 763,763l0 802zm-1271 -254l0 0 1017 0 0 -548c0,-280 -228,-508 -509,-508 -280,0 -508,228 -508,508l0 548z"/>
      </g>
     </g>
     <polygon class="fil0" points="2723,3398 2073,3398 2073,2678 2723,2678 "/>
     <g>
      <g>
       <path class="fil1" d="M3389 2112l-1965 0c-67,0 -120,54 -120,119l0 1542c0,66 53,119 120,119l1965 0c66,0 119,-53 119,-119l0 -1542c0,-65 -53,-119 -119,-119zm-1073 875l0 0 0 -132c0,-49 40,-89 90,-89 50,0 90,40 90,89l0 132c55,32 92,91 92,159 0,107 -94,193 -204,180 -79,-10 -144,-71 -157,-149 -13,-81 26,-153 89,-190z"/>
      </g>
     </g>
    </g>
    <g>
     <path class="fil2" d="M3508 2231l0 1542c0,66 -53,119 -119,119l-1965 0c-67,0 -120,-53 -120,-119l0 -76c468,6 1163,-14 1540,-167 540,-219 539,-1129 520,-1418l25 0c66,0 119,54 119,119z"/>
    </g>
   </g>
   <g>
    <g>
     <g>
      <g>
       <g>
        <g>
         <g>
          <g>
           <polygon class="fil3" points="747,3733 691,3733 691,3260 747,3260 "/>
          </g>
          <g>
           <g>
            <polygon class="fil3" points="726,3864 709,3864 711,3726 729,3727 "/>
           </g>
          </g>
          <g>
           <g>
            <path class="fil3" d="M745 3883c0,15 -13,27 -28,27 -15,0 -28,-12 -28,-27 0,-16 13,-28 28,-28 15,0 28,12 28,28z"/>
           </g>
          </g>
          <g>
           <g>
            <g>
             <g>
              <path class="fil3" d="M858 3883c0,15 -13,27 -28,27 -15,0 -28,-12 -28,-27 0,-16 13,-28 28,-28 15,0 28,12 28,28z"/>
             </g>
             <g>
              <polygon class="fil3" points="840,3867 822,3867 822,3829 722,3729 735,3716 840,3821 "/>
             </g>
            </g>
            <g>
             <g>
              <path class="fil3" d="M581 3883c0,15 12,27 27,27 16,0 28,-12 28,-27 0,-16 -12,-28 -28,-28 -15,0 -27,12 -27,28z"/>
             </g>
             <g>
              <polygon class="fil3" points="616,3867 598,3867 598,3821 703,3716 716,3729 616,3829 "/>
             </g>
            </g>
           </g>
          </g>
         </g>
        </g>
        <g>
         <path class="fil4" d="M958 2564l0 708 -516 0c-62,0 -112,-51 -112,-113l0 -595c0,-111 90,-200 200,-200l228 0c110,0 200,89 200,200z"/>
        </g>
        <g>
         <path class="fil3" d="M684 3141l0 131 -242 0c-62,0 -112,-51 -112,-113l0 -18 354 0z"/>
        </g>
        <g>
         <polygon class="fil4" points="1115,3272 523,3272 523,3141 1115,3141 "/>
        </g>
       </g>
       <g>
        <g>
         <path class="fil5" d="M884 3155c196,32 361,23 368,-21 7,-44 -146,-106 -341,-138 -196,-32 -361,-23 -368,21 -7,44 145,106 341,138z"/>
         <g>
          <path class="fil5" d="M1217 3122c138,-65 189,540 158,671 -31,132 -112,-93 -151,-306 -40,-213 -61,-339 -7,-365z"/>
          <path class="fil0" d="M1373 3801c0,0 19,24 60,56 40,31 51,25 52,36 1,12 -170,0 -170,0l3 -95c0,0 55,1 55,3z"/>
         </g>
        </g>
        <g>
         <path class="fil5" d="M1059 3090c192,60 358,75 371,33 14,-42 -131,-126 -323,-187 -191,-61 -358,-75 -371,-33 -14,42 131,126 323,187z"/>
         <g>
          <path class="fil5" d="M1383 3101c162,46 -251,545 -372,632 -121,86 -9,-121 113,-326 122,-205 196,-325 259,-306z"/>
          <path class="fil0" d="M1004 3738c0,0 -3,34 8,89 11,56 25,58 17,68 -8,10 -141,-123 -141,-123l72 -76c0,0 45,40 44,42z"/>
         </g>
        </g>
        <g>
         <path class="fil6" d="M652 2910c11,84 144,147 274,191 131,45 261,70 266,79 8,17 -198,405 -219,446 -2,2 -2,4 -2,4l87 78c0,0 393,-436 380,-587 -12,-139 -528,-252 -528,-252 0,0 -281,-127 -258,41z"/>
        </g>
        <g>
         <path class="fil7" d="M1192 3180c8,17 -198,405 -219,446 130,-131 405,-425 336,-519 -89,-120 -441,-170 -441,-170l58 164c131,45 261,70 266,79z"/>
        </g>
        <g>
         <path class="fil6" d="M579 3172c125,40 541,31 555,49 15,17 159,542 159,542l112 0c-2,0 -32,-511 -111,-641 -78,-129 -538,-211 -538,-211l-251 -10c0,0 -1,4 -2,11 -8,45 -33,224 76,260z"/>
        </g>
        <g>
         <path class="fil7" d="M579 3172c125,40 541,31 555,49 15,17 159,542 159,542l3 0c1,-136 -90,-532 -137,-584 -52,-56 -327,-50 -469,-59 -121,-8 -174,-160 -187,-208 -8,45 -33,224 76,260z"/>
        </g>
        <path class="fil0" d="M839 2407c25,-38 44,-83 66,-122 14,-26 29,-53 27,-83 -3,-23 -15,-43 -20,-65 -5,-18 -4,-37 -4,-55 1,-25 1,-51 2,-76 0,-16 5,-32 -4,-44 -11,-16 -33,-28 -48,-40 -30,-25 -60,-51 -91,-76l-191 136 18 345c47,22 94,45 141,68 18,8 35,17 53,25 18,8 29,19 41,1 4,-5 7,-10 10,-14z"/>
        <g>
         <path class="fil5" d="M760 2347c11,42 24,97 40,151 14,48 30,94 47,126 16,31 34,50 51,44 6,-2 11,-6 15,-11 8,-12 10,-30 9,-52 -1,-19 -4,-40 -8,-63 -6,-25 -13,-52 -20,-79 -22,-74 -50,-150 -64,-191 -7,-22 -39,-11 -61,-12 -54,-5 -26,15 -9,87z"/>
         <g>
          <path class="fil5" d="M852 2664c4,15 194,81 327,113 73,18 129,26 128,10 -2,-39 -288,-147 -385,-182 -3,-1 -7,-3 -9,-4 -12,-4 -26,-5 -38,-2 -6,2 -12,5 -18,10 -6,4 -9,10 -10,15 -5,13 2,27 5,40z"/>
          <path class="fil8" d="M847 2624c-5,13 2,27 5,40 4,15 194,81 327,113 -84,-33 -206,-84 -266,-120 -18,-11 -30,-21 -34,-28 -5,-10 -6,-20 -4,-30 5,-23 25,-45 39,-57 -6,-25 -13,-52 -20,-79l-68 -6 -26 41c14,48 30,94 47,126z"/>
          <path class="fil5" d="M1251 2766c11,-30 60,-6 77,3 27,15 47,52 42,63 -6,10 -65,-26 -68,-25 -4,2 23,22 17,32 -6,9 -46,-13 -58,-28 -12,-15 -16,-26 -10,-45z"/>
         </g>
        </g>
        <g>
         <path class="fil9" d="M782 2527l17 -2 85 -9 34 -3c0,0 -14,-266 -103,-253 -82,11 -33,267 -33,267z"/>
        </g>
        <g>
         <path class="fil10" d="M782 2495c-1,3 7,15 17,30l85 -9c5,-19 9,-42 11,-68 7,-101 -39,-158 -39,-158 0,0 -73,195 -74,205z"/>
        </g>
        <g>
         <path class="fil9" d="M505 2901c0,0 286,44 405,-32 0,0 -6,-15 -15,-38 -7,-17 -15,-41 -22,-67 -12,-43 -22,-93 -21,-139 2,-112 35,-129 38,-201 3,-72 -33,-152 -57,-175 -50,-47 -172,-47 -222,-23 -44,21 -62,49 -68,76 -6,29 -11,64 -15,102 -4,44 -7,92 -9,141 -3,46 -4,93 -5,137 -1,22 -2,43 -2,63 -2,68 -4,124 -7,156z"/>
        </g>
        <g>
         <path class="fil10" d="M519 2545c49,7 117,12 127,-7 17,-31 3,-177 3,-177l-121 43c-4,44 -7,92 -9,141z"/>
        </g>
        <g>
         <path class="fil10" d="M512 2745c6,23 14,42 25,49 23,15 266,32 358,37 -7,-17 -15,-41 -22,-67 -50,-3 -311,-24 -311,-24l-48 -58c-1,22 -2,43 -2,63z"/>
        </g>
        <path class="fil5" d="M896 2057c-2,79 -15,100 -41,119 -23,19 -78,0 -84,-3 0,0 0,0 0,0 0,0 0,0 0,0 0,0 0,18 0,34l0 30c0,4 16,39 -30,39 -47,0 -93,-37 -93,-37 0,-4 0,-112 0,-112 0,0 -82,-105 -50,-192 33,-87 197,-48 248,-29 51,18 52,73 50,151z"/>
        <polygon class="fil5" points="771,2173 709,2151 771,2209 "/>
        <g>
         <path class="fil5" d="M538 2763c3,2 6,3 9,3 14,1 27,-11 37,-32 7,-14 13,-32 19,-53 10,-39 18,-87 23,-136 1,-8 2,-17 3,-25 8,-80 12,-160 13,-200 1,-22 -10,-44 -30,-54 -49,-23 -75,78 -84,151 -2,23 -5,51 -8,81 -11,110 -18,246 18,265z"/>
         <g>
          <path class="fil5" d="M538 2763c0,1 1,1 1,2 11,19 367,45 492,27 28,-4 45,-11 42,-20 -13,-41 -350,-79 -470,-91 -6,-1 -11,-2 -15,-2 -18,-2 -36,3 -49,14 -4,3 -7,6 -9,10 -18,23 -2,43 8,60z"/>
          <path class="fil8" d="M538 2763c0,1 1,1 1,2 11,19 367,45 492,27 1,-1 1,-3 0,-4 -17,-19 -342,-38 -447,-54 -15,-2 -26,-5 -30,-7 -8,-5 -13,-17 -15,-34 -7,-44 4,-115 7,-136 4,-26 69,-14 80,-12 2,1 2,1 2,1l11 -17 -10 -9 -23 -21 -86 -1c-11,110 -18,246 18,265z"/>
          <path class="fil5" d="M1006 2765c3,-36 64,-23 85,-18 33,8 66,44 63,57 -3,13 -78,-10 -81,-8 -4,3 32,18 28,30 -5,12 -54,-1 -72,-15 -17,-13 -25,-24 -23,-46z"/>
         </g>
        </g>
        <g>
         <path class="fil9" d="M506 2515c0,0 6,-260 89,-254 90,6 44,268 44,268l-133 -14z"/>
        </g>
        <path class="fil0" d="M910 2017c10,-61 14,-100 -4,-137 -39,-84 -249,-137 -322,21 -6,11 -10,22 -15,34 -33,83 -53,172 -64,261 -5,38 -8,76 -7,114 0,15 1,30 3,44 2,15 2,37 11,49 6,8 15,13 23,18 7,4 15,9 23,9 8,0 15,-4 22,-8 30,-19 58,-42 77,-72 18,-30 27,-67 18,-101 -2,-11 -7,-21 -10,-31 -8,-27 -8,-56 0,-82 4,-14 13,-25 15,-39 3,-11 3,-25 3,-36 -1,-6 -1,-12 -1,-19 1,-5 2,-10 3,-15 3,-10 6,-19 8,-28 3,-10 6,-21 14,-28 5,-5 12,-7 18,-10 27,-12 46,-31 53,-59 37,44 72,101 132,115l0 0z"/>
       </g>
      </g>
     </g>
    </g>
    <g>
     <g>
      <path class="fil11" d="M1731 2490l-165 336c0,0 -341,-2 -343,0l164 -336c0,0 349,0 344,0z"/>
      <g>
       <polygon class="fil12" points="976,2825 1224,2825 1234,2805 1245,2782 982,2780 979,2803 "/>
      </g>
      <polygon class="fil12" points="1387,2490 1374,2490 1213,2824 1224,2825 "/>
      <path class="fil12" d="M976 2825l248 0 10 -20c-1,1 -255,-2 -255,-2l-3 22z"/>
     </g>
     <path class="fil12" d="M1513 2680c-14,17 -35,22 -48,12 -13,-10 -12,-32 2,-49 14,-17 35,-22 48,-12 12,10 11,32 -2,49z"/>
    </g>
    <g>
     <g>
      <g>
       <polygon class="fil13" points="367,3903 406,3903 406,2838 367,2838 "/>
      </g>
     </g>
     <g>
      <g>
       <polygon class="fil13" points="1723,3903 1763,3903 1763,2838 1723,2838 "/>
      </g>
     </g>
    </g>
    <g>
     <g>
      <polygon class="fil0" points="157,2898 1971,2898 1971,2820 157,2820 "/>
     </g>
    </g>
   </g>
   <g>
    <g>
     <g>
      <g>
       <path class="fil14" d="M3412 2988l2 0c0,0 30,-4 59,-21l0 1 0 42c0,0 -8,41 -58,52 -49,-11 -57,-52 -57,-52l0 -39 0 -1c27,14 54,18 54,18z"/>
       <path class="fil5" d="M3414 2988l-2 0c0,0 -27,-4 -54,-18 -26,-13 -53,-35 -58,-70 0,0 -30,-14 -30,-38 1,-25 27,-19 27,-19 0,0 -22,-78 19,-136 42,-58 94,-40 94,-40l5 0c0,0 53,-18 94,40 42,58 19,136 19,136 0,0 27,-6 27,19 1,24 -29,38 -29,38 -5,33 -29,54 -53,67 -29,17 -59,21 -59,21z"/>
       <path class="fil15" d="M3669 3609l0 1c-118,46 -243,122 -254,129 -10,-7 -135,-82 -253,-129l1 -1 0 -111 0 -64 27 0 224 0 3 0 224 0 28 0 0 64 0 111z"/>
       <path class="fil5" d="M3163 3498l0 111 -1 1c-22,-9 -44,-16 -65,-22 -53,-43 -126,-106 -134,-133 -7,-21 22,-83 58,-151l0 0 91 51 28 17c-16,29 -29,57 -27,64 6,16 49,62 49,62l1 0z"/>
       <path class="fil5" d="M3868 3455c-8,27 -80,89 -133,132 -21,7 -43,14 -66,23l0 -1 0 -111 0 0c0,0 43,-46 49,-62 3,-7 -11,-35 -27,-64l28 -17 91 -51 0 0c37,68 65,130 58,151z"/>
       <path class="fil14" d="M3759 3442c-12,21 -57,73 -90,111l0 -55 0 0c0,0 43,-46 49,-62 3,-7 -11,-35 -27,-64l35 -20c17,22 47,67 33,90z"/>
       <g>
        <path class="fil9" d="M3810 3304l0 0 -84 48 -7 3 0 1 -28 16c-5,-8 -9,-16 -14,-24 -15,-26 -30,-49 -32,-54 0,0 0,0 0,0l-1 0c0,0 -5,92 -3,136l0 4 -451 0 0 -4c3,-44 -3,-136 -3,-136 0,0 -1,0 -1,0 -3,5 -26,42 -45,78l-29 -17 -91 -51 0 0c37,-70 83,-146 106,-190 39,-70 168,-95 214,-102 10,-1 17,-2 17,-2 0,0 8,41 57,52 50,-11 58,-52 58,-52 0,0 7,1 17,3 46,6 176,31 214,101 21,39 59,104 94,167 4,8 8,16 12,23z"/>
       </g>
       <g>
        <path class="fil10" d="M3726 3352l-7 3 0 1 -28 16c-20,-35 -43,-72 -46,-78 0,0 0,0 0,0l0 -62c0,0 50,63 81,120z"/>
       </g>
       <g>
        <path class="fil10" d="M3187 3236l0 58c0,0 -1,0 -1,0 -3,5 -26,42 -46,78l-28 -17c31,-58 75,-119 75,-119z"/>
       </g>
       <path class="fil14" d="M3163 3498l0 39c-40,-31 -81,-69 -82,-97 -1,-20 13,-52 31,-85l28 17c-16,29 -29,57 -27,64 6,16 49,62 49,62l1 0z"/>
      </g>
     </g>
     <path class="fil0" d="M3281 2812c-2,-2 -8,-13 -7,-27 1,-19 13,-29 15,-31 -1,-1 -4,-7 -2,-15 2,-7 7,-12 13,-13 0,-2 -4,-18 4,-32 7,-12 20,-17 33,-12 1,-16 9,-30 21,-36 17,-9 32,2 33,3 1,-1 4,-10 12,-11 5,-1 11,2 14,7 3,-5 9,-8 14,-7 8,1 11,10 11,11 2,-1 17,-12 34,-3 12,6 20,20 21,36 13,-5 26,0 33,12 8,14 4,30 4,32 6,1 11,6 12,13 2,8 0,14 -1,15 2,2 14,12 15,31 1,14 -6,25 -7,27 5,4 7,11 5,18 -2,6 -7,11 -13,10 -1,2 -3,3 -6,5 -1,1 -3,1 -4,2 -2,-1 -6,-3 -9,-8 -6,-10 -1,-22 -1,-22 -2,-3 -13,-17 -11,-34 1,-4 2,-7 3,-10 -2,-1 -16,-7 -20,-23 -1,-5 -2,-10 -1,-13 -5,3 -9,3 -13,0 -3,-3 -4,-6 -5,-8 -3,2 -10,6 -21,5 -11,-1 -18,-7 -21,-10 0,0 -3,12 -19,12l0 0c0,0 0,0 0,0 0,0 0,0 0,0l0 0c-17,0 -20,-12 -20,-12 -2,3 -10,9 -20,10 -11,1 -19,-3 -22,-5 0,2 -1,5 -4,8 -4,3 -9,3 -13,0 0,3 0,8 -1,13 -5,16 -18,22 -21,23 2,3 3,6 3,10 3,17 -8,31 -10,34 0,0 5,12 -1,22 -3,5 -7,7 -9,8 -1,-1 -3,-1 -5,-2 -2,-2 -4,-3 -5,-5 -6,1 -11,-4 -13,-10 -2,-7 0,-14 5,-18z"/>
    </g>
    <g>
     <path class="fil13" d="M3634 3820l-1 37 -1 52c0,0 -51,-4 -125,-14 -95,-12 -228,-33 -339,-64 -101,-27 -185,-63 -206,-108 -45,-98 51,-176 162,-137 44,15 135,56 228,99 138,65 282,135 282,135z"/>
     <path class="fil16" d="M3634 3820l-1 37 -126 38c-95,-12 -228,-33 -339,-64 55,-34 134,-102 184,-146 138,65 282,135 282,135z"/>
     <path class="fil13" d="M3671 3835l0 79c0,0 104,7 111,-4 7,-12 15,-54 -12,-74 -26,-20 -90,-21 -99,-1z"/>
     <polygon class="fil5" points="3631,3820 3672,3835 3672,3914 3630,3909 "/>
     <path class="fil13" d="M3199 3909c0,0 608,-54 670,-186 45,-98 -51,-176 -162,-137 -111,38 -510,234 -510,234l2 89z"/>
     <polygon class="fil5" points="3199,3820 3158,3835 3158,3914 3200,3909 "/>
     <path class="fil13" d="M3159 3835l0 79c0,0 -104,7 -111,-4 -7,-12 -15,-54 12,-74 26,-20 90,-21 99,-1z"/>
    </g>
   </g>
   <g>
    <g>
     <g>
      <g>
       <path class="fil17" d="M870 1135l-156 0c-26,0 -46,-21 -46,-46l0 -157c0,-25 20,-46 46,-46l156 0c26,0 46,21 46,46l0 157c0,25 -20,46 -46,46z"/>
      </g>
     </g>
     <g>
      <g>
       <path class="fil18" d="M960 1232l-171 0c-27,0 -50,-23 -50,-50l0 -171c0,-27 23,-50 50,-50l171 0c27,0 50,23 50,50l0 171c0,27 -23,50 -50,50zm-171 -231l0 0c-6,0 -10,4 -10,10l0 171c0,6 4,11 10,11l171 0c6,0 11,-5 11,-11l0 -171c0,-6 -5,-10 -11,-10l-171 0z"/>
      </g>
     </g>
    </g>
    <g>
     <g>
      <g>
       <path class="fil17" d="M3559 1568l119 0c19,0 35,-16 35,-35l0 -119c0,-19 -16,-35 -35,-35l-119 0c-19,0 -35,16 -35,35l0 119c0,19 16,35 35,35z"/>
      </g>
     </g>
     <g>
      <g>
       <g>
        <path class="fil18" d="M3621 1641l-130 0c-21,0 -38,-16 -38,-37l0 -130c0,-21 17,-38 38,-38l130 0c21,0 38,17 38,38l0 130c0,21 -17,37 -38,37zm-130 -175l0 0c-4,0 -8,4 -8,8l0 130c0,4 4,8 8,8l130 0c4,0 8,-4 8,-8l0 -130c0,-4 -4,-8 -8,-8l-130 0z"/>
       </g>
      </g>
     </g>
    </g>
    <g>
     <g>
      <g>
       <path class="fil18" d="M3465 432c-5,0 -9,-2 -13,-5l-45 -45c-8,-8 -8,-20 0,-27l45 -45c7,-8 19,-8 27,0l45 45c4,3 5,8 5,13 0,5 -1,10 -5,14l-45 45c-4,3 -9,5 -14,5zm0 -112l0 0c-1,0 -1,0 -2,1l-45 45c-2,1 -2,3 0,5l45 45c2,2 3,2 5,0l45 -45c1,-1 1,-2 1,-3 0,0 0,-1 -1,-2l-45 -45c-1,-1 -2,-1 -3,-1z"/>
      </g>
     </g>
    </g>
    <g>
     <g>
      <g>
       <path class="fil18" d="M3688 2284c-5,0 -10,-2 -14,-6l-45 -45c-7,-7 -7,-19 0,-27l45 -45c8,-7 20,-7 27,0l45 45c8,8 8,20 0,27l-45 45c-4,4 -8,6 -13,6zm-3 -17l0 0c2,2 3,2 5,0l45 -45c1,-1 1,-2 1,-2 0,-1 0,-2 -1,-3l-45 -45c-2,-2 -3,-2 -5,0l-45 45c-1,1 -1,2 -1,3 0,0 0,1 1,2l45 45z"/>
      </g>
     </g>
    </g>
    <g>
     <g>
      <g>
       <path class="fil18" d="M1419 299c-5,0 -10,-2 -14,-6l-45 -45c-4,-3 -6,-8 -6,-13 0,-5 2,-10 6,-14l45 -45c7,-7 20,-7 27,0l45 45c4,4 6,9 6,14 0,5 -2,10 -6,13l-45 45c-4,4 -9,6 -13,6zm0 -113l0 0c-1,0 -2,0 -3,1l-45 45c-1,1 -1,2 -1,3 0,0 0,1 1,2l45 45c2,2 3,2 5,0l45 -45c1,-1 1,-2 1,-2 0,-1 0,-2 -1,-3l-45 -45c-1,-1 -2,-1 -2,-1z"/>
      </g>
     </g>
    </g>
    <g>
     <g>
      <g>
       <path class="fil18" d="M332 2190c-5,0 -10,-1 -14,-5l-45 -45c-3,-4 -5,-9 -5,-14 0,-5 2,-10 5,-13l45 -45c4,-4 9,-6 14,-6l0 0c5,0 10,2 13,6l45 45c8,7 8,19 0,27l-45 45c-4,4 -8,5 -13,5zm0 -112l0 0c-1,0 -2,0 -3,1l-45 45c-1,1 -1,2 -1,2 0,1 0,2 1,3l45 45c2,1 4,1 5,0l45 -45c1,-1 1,-2 1,-3 0,0 0,-1 -1,-2l-45 -45c-1,-1 -2,-1 -2,-1z"/>
      </g>
     </g>
    </g>
    <g>
     <g>
      <g>
       <path class="fil18" d="M4213 2515c-5,0 -11,-2 -14,-6l-53 -53c-8,-8 -8,-20 0,-28l44 -44c7,-8 20,-8 28,0l53 53c7,8 7,20 0,28l-44 44c-4,4 -9,6 -14,6zm-3 -18l0 0c2,2 4,2 6,0l43 -43c2,-2 2,-4 0,-6l-52 -52c-2,-2 -4,-2 -6,0l-43 43c-2,2 -2,4 0,6l52 52z"/>
      </g>
     </g>
    </g>
    <g>
     <path class="fil17" d="M1255 1600c0,17 -14,30 -31,30 -16,0 -30,-13 -30,-30 0,-17 14,-31 30,-31 17,0 31,14 31,31z"/>
    </g>
    <g>
     <path class="fil17" d="M4003 998c0,18 -15,33 -33,33 -18,0 -33,-15 -33,-33 0,-18 15,-33 33,-33 18,0 33,15 33,33z"/>
    </g>
    <g>
     <path class="fil17" d="M2378 310c0,18 -15,33 -33,33 -18,0 -32,-15 -32,-33 0,-18 14,-32 32,-32 18,0 33,14 33,32z"/>
    </g>
    <g>
     <g>
      <path class="fil17" d="M1637 1157c0,20 -17,37 -37,37 -21,0 -38,-17 -38,-37 0,-21 17,-38 38,-38 20,0 37,17 37,38z"/>
     </g>
    </g>
    <g>
     <path class="fil17" d="M542 1539c0,16 -12,28 -27,28 -15,0 -28,-12 -28,-28 0,-15 13,-27 28,-27 15,0 27,12 27,27z"/>
    </g>
    <g>
     <path class="fil17" d="M1204 2018c0,15 -12,27 -27,27 -15,0 -28,-12 -28,-27 0,-15 13,-27 28,-27 15,0 27,12 27,27z"/>
    </g>
    <g>
     <g>
      <path class="fil17" d="M352 1754c0,7 -5,12 -12,12 -6,0 -12,-5 -12,-12 0,-6 6,-12 12,-12 7,0 12,6 12,12z"/>
     </g>
    </g>
   </g>
   <g>
    <g>
     <g>
      <path class="fil9" d="M3113 407c-31,-11 -65,-16 -99,-16 -136,1 -249,93 -285,217 0,0 0,0 0,0l-969 0 -398 0c-33,0 -61,28 -61,61l0 102 0 0 0 90c0,28 23,51 52,51l9 0c28,0 51,-23 51,-51l0 -90 65 0 0 90c0,28 23,51 51,51l12 0c28,0 51,-23 51,-51l0 -90 66 0 0 87c0,27 19,51 46,54 30,3 56,-21 56,-51l0 -90 969 0c11,38 29,73 53,103 55,70 140,114 235,114 170,0 306,-141 298,-312 -5,-125 -90,-230 -202,-269zm92 346l0 0c-12,8 -27,13 -43,13 -42,0 -76,-34 -76,-76 0,-43 34,-77 76,-77 16,0 31,5 43,13l0 0c21,14 34,37 34,64 0,26 -14,50 -34,63z"/>
     </g>
    </g>
    <g>
     <path class="fil10" d="M3315 676c8,171 -128,312 -298,312 -95,0 -180,-44 -235,-114 99,48 212,69 316,11 61,-35 93,-81 107,-132 20,-13 34,-37 34,-63 0,-27 -13,-50 -34,-64l0 0c-17,-87 -62,-170 -92,-219 112,39 197,144 202,269z"/>
    </g>
   </g>
   <path class="fil8" d="M771 2173c0,0 0,0 0,0 0,0 0,0 0,0 0,0 0,18 0,34 -25,-20 -50,-56 -52,-59l52 25c0,0 0,0 0,0z"/>
   <g>
    <g>
     <path class="fil18" d="M1812 2745c-4,-10 -24,-53 -28,-79 -5,-27 -20,-49 -20,-62 0,-13 22,-21 27,-49 6,-27 18,-72 25,-70 7,1 12,50 18,62 7,12 25,27 11,45 -14,17 -6,38 7,56 13,18 -24,41 -21,66 4,25 -3,58 -3,58l-16 -27z"/>
    </g>
    <g>
     <g>
      <path class="fil17" d="M1819 2693c-1,0 -2,-1 -2,-2 -2,-17 -7,-29 -11,-39 -3,-8 -6,-15 -6,-21 -1,-8 4,-14 8,-20 4,-5 8,-11 9,-18 2,-16 -12,-50 -12,-51 0,-1 0,-2 1,-3 1,0 3,1 3,2 1,1 15,36 12,52 -1,9 -5,15 -9,21 -5,5 -8,10 -8,17 0,5 3,12 6,19 4,11 9,23 11,40 0,1 -1,3 -2,3 0,0 0,0 0,0z"/>
     </g>
    </g>
    <g>
     <path class="fil17" d="M1776 2737c-5,-2 -7,-31 -17,-35 -10,-5 -17,-18 -20,-32 -3,-14 -32,-20 -37,-35 -5,-15 11,-26 10,-40 -1,-14 -13,-34 -5,-43 9,-9 24,22 32,29 8,6 24,13 20,25 -5,12 1,32 29,42 28,11 47,116 -12,89z"/>
    </g>
    <g>
     <g>
      <path class="fil18" d="M1780 2688c-1,0 -2,-1 -2,-2 -5,-17 -14,-23 -24,-31 -5,-4 -11,-8 -16,-14 -16,-17 -8,-47 -8,-49 0,-1 2,-2 3,-1 1,0 2,1 1,2 0,1 -7,30 7,45 5,6 10,10 16,14 10,7 19,15 25,33 1,1 0,2 -1,3 0,0 -1,0 -1,0z"/>
     </g>
    </g>
    <g>
     <path class="fil17" d="M1828 2741c2,-5 3,-23 13,-28 10,-4 20,-7 28,-20 8,-13 0,-33 9,-47 8,-13 28,0 38,-14 10,-14 -12,-37 -4,-47 7,-11 18,-38 7,-41 -10,-4 -41,15 -48,33 -8,17 -24,27 -28,41 -3,13 -15,20 -18,34 -3,14 2,35 -3,50 -5,15 6,39 6,39z"/>
    </g>
    <g>
     <path class="fil9" d="M1854 2818l-90 0c-7,0 -12,-5 -13,-11l-3 -97 122 0 -4 97c0,6 -6,11 -12,11z"/>
    </g>
    <g>
     <g>
      <path class="fil18" d="M1848 2690c0,0 0,0 0,0 -1,0 -2,-1 -2,-2 3,-37 16,-58 29,-74 11,-12 17,-36 17,-36 0,-2 2,-2 3,-2 1,0 2,1 1,3 0,1 -6,25 -17,38 -13,16 -26,35 -29,71 0,1 -1,2 -2,2z"/>
     </g>
    </g>
   </g>
   <g>
    <g>
     <polygon class="fil11" points="1191,2661 1188,2713 1185,2771 1182,2819 1088,2819 1086,2771 1083,2713 1080,2661 "/>
     <g>
      <polygon class="fil19" points="1184,2646 1087,2646 1087,2663 1184,2663 "/>
     </g>
     <g>
      <polygon class="fil19" points="1197,2682 1073,2682 1073,2660 1197,2660 "/>
     </g>
     <g>
      <polygon class="fil9" points="1188,2713 1185,2771 1086,2771 1083,2713 "/>
     </g>
    </g>
    <path class="fil11" d="M1151 2742c0,8 -7,15 -16,15 -8,0 -15,-7 -15,-15 0,-9 7,-15 15,-15 9,0 16,6 16,15z"/>
   </g>
  </g>
 </g>
</svg>
