<?xml version="1.0" encoding="UTF-8"?>
<!DOCTYPE svg PUBLIC "-//W3C//DTD SVG 1.1//EN" "http://www.w3.org/Graphics/SVG/1.1/DTD/svg11.dtd">
<!-- Creator: CorelDRAW X7 -->
<svg xmlns="http://www.w3.org/2000/svg" xml:space="preserve" width="14.151in" height="9.36in" version="1.1" style="shape-rendering:geometricPrecision; text-rendering:geometricPrecision; image-rendering:optimizeQuality; fill-rule:evenodd; clip-rule:evenodd"
viewBox="0 0 14151 9360"
 xmlns:xlink="http://www.w3.org/1999/xlink">
 <defs>
  <style type="text/css">
   <![CDATA[
    .fil0 {fill:#F8CE08;fill-rule:nonzero;fill-opacity:0.211765}
   ]]>
  </style>
 </defs>
 <g id="Layer_x0020_1">
  <metadata id="CorelCorpID_0Corel-Layer"/>
  <g id="_1072532016">
   <g>
    <path class="fil0" d="M1210 2782c-119,-116 283,-382 468,-536 185,-154 573,-163 954,-118 382,44 739,56 936,-24 197,-80 259,-45 253,24 -6,69 -480,192 -462,340 18,147 179,30 252,116 74,87 93,204 241,142 147,-61 135,-160 166,-209 31,-49 154,-80 197,92 43,173 336,136 374,228 39,92 -60,117 -220,89 -160,-27 -333,108 -468,397 -136,290 -351,733 -616,801 -265,68 -571,-17 -727,49 -132,57 -178,259 44,345 221,86 379,31 449,74 120,74 -6,157 65,246 71,90 148,87 138,136 -9,49 -46,89 -40,145 6,55 -64,95 -107,0 -44,-96 -81,-139 -136,-151 -55,-13 -120,15 -166,-120 -46,-136 -207,-170 -354,-124 -148,47 -296,16 -357,-144 -62,-160 -188,-610 -311,-801 -124,-191 -296,-335 -256,-437 40,-102 311,-265 366,-508 56,-243 -114,-280 -255,-194 -142,86 -323,243 -428,142z"/>
    <path class="fil0" d="M3221 5803c186,150 91,320 148,534 58,213 320,287 362,566 41,280 65,912 82,1150 16,238 246,558 369,517 123,-41 -57,-189 90,-378 148,-188 255,-254 255,-418 0,-165 123,-107 230,-222 107,-115 90,-213 205,-411 115,-197 279,-147 345,-509 66,-361 197,-722 0,-829 -197,-107 -304,-9 -419,-234 -115,-226 -254,-226 -443,-217 -189,8 -222,-66 -345,-214 -123,-148 -443,-287 -567,-230 -123,58 -109,293 -205,460 -96,167 -279,296 -107,435z"/>
    <path class="fil0" d="M5954 2985c172,92 -12,221 68,308 80,86 166,135 302,61 135,-74 252,-162 375,36 124,198 370,463 542,660 173,197 296,345 431,345 136,0 185,-142 296,-99 111,44 98,265 55,351 -43,87 -406,635 -412,820 -6,184 43,351 -37,492 -80,142 -417,302 -547,413 -131,111 -241,388 -287,505 -47,117 -336,351 -509,338 -172,-12 -166,-234 -160,-443 6,-209 43,-382 -31,-493 -73,-110 -110,-117 -86,-246 25,-129 74,-179 31,-265 -43,-86 -160,-209 -160,-412 0,-204 -43,-222 -111,-256 -68,-34 -166,-124 -178,-205 -13,-81 -325,30 -449,-57 -123,-86 -340,-535 -284,-751 55,-215 991,-1188 1151,-1102z"/>
    <path class="fil0" d="M12279 1086c0,-103 -144,-242 -370,-189 -226,54 -492,148 -661,62 -168,-86 -139,-169 -250,-173 -111,-4 -103,128 -210,103 -106,-25 -160,-70 -357,-86 -197,-17 -755,37 -985,65 -230,29 -587,510 -772,559 -185,49 -254,12 -378,8 -123,-4 -254,74 -386,66 -131,-9 -258,-82 -410,-58 -152,25 -595,654 -723,612 -127,-41 160,-361 148,-386 -12,-25 -135,99 -287,82 -152,-16 -275,-62 -403,33 -127,94 -316,334 -373,344 -58,9 -131,-24 -197,38 -66,61 -99,160 -74,160 25,0 135,-140 209,-90 68,45 -123,151 -53,184 70,33 218,-168 287,-258 70,-91 267,-226 390,-78 123,147 -160,427 -209,472 -49,45 -292,168 -205,250 86,82 90,-41 258,-61 169,-21 173,0 267,-37 95,-37 152,-103 226,-78 74,24 8,135 103,152 94,16 123,-66 217,-148 95,-82 95,-123 292,-8 197,115 217,188 189,234 -29,45 -206,80 -329,66 -123,-13 -171,-3 -206,53 -36,57 54,82 75,201 20,119 -10,205 74,324 84,119 435,398 517,521 82,124 181,78 287,17 107,-62 160,-49 197,-99 37,-49 82,-250 37,-287 -45,-37 -111,41 -234,-94 -123,-136 -217,-271 -152,-308 66,-37 238,205 477,312 238,106 431,201 476,439 45,238 -4,489 66,517 69,29 209,-258 390,-349 180,-90 344,-143 365,144 20,287 0,357 160,443 160,87 308,124 456,255 148,131 184,217 234,197 49,-21 -33,-131 0,-242 33,-111 61,-242 45,-382 -17,-140 -255,-345 -226,-489 29,-143 259,-221 468,-357 209,-135 279,-230 275,-402 -4,-173 -308,-509 -148,-616 160,-107 197,497 353,497 156,0 -61,-255 91,-390 152,-136 349,-226 382,-452 32,-226 -140,-341 -119,-480 20,-140 73,-189 188,-131 115,57 148,4 234,-165 87,-168 247,-156 304,-258 58,-103 -20,-156 -20,-259zm-4240 1809l0 0c-86,71 -207,-104 -271,-209 -65,-105 -148,-194 -213,-246 -64,-53 -57,-79 -24,-108 69,-61 354,-58 378,0 25,59 -49,228 22,323 71,96 152,204 108,240z"/>
    <path class="fil0" d="M10493 6409c230,-317 527,-148 793,-265 266,-117 395,252 617,265 222,12 216,-173 182,-321 -34,-147 61,-178 235,50 174,228 353,492 476,572 123,80 172,50 166,259 -6,209 -6,659 -203,659 -197,0 -326,-289 -610,-412 -283,-124 -813,289 -1053,227 -240,-61 -517,-560 -603,-696 -86,-135 -59,-257 0,-338z"/>
   </g>
   <path class="fil0" d="M10625 5430c47,68 400,-87 431,-148 31,-62 -40,-130 -24,-185 15,-55 30,-142 -43,-185 -111,-64 -481,348 -364,518z"/>
  </g>
 </g>
</svg>
