<?xml version="1.0" encoding="UTF-8"?>
<!DOCTYPE svg PUBLIC "-//W3C//DTD SVG 1.1//EN" "http://www.w3.org/Graphics/SVG/1.1/DTD/svg11.dtd">
<!-- Creator: CorelDRAW X7 -->
<svg xmlns="http://www.w3.org/2000/svg" xml:space="preserve" width="4.434in" height="4.08699in" version="1.1" style="shape-rendering:geometricPrecision; text-rendering:geometricPrecision; image-rendering:optimizeQuality; fill-rule:evenodd; clip-rule:evenodd"
viewBox="0 0 4434 4087"
 xmlns:xlink="http://www.w3.org/1999/xlink">
 <defs>
  <style type="text/css">
   <![CDATA[
    .fil25 {fill:#121B38;fill-rule:nonzero}
    .fil20 {fill:#2A2953;fill-rule:nonzero}
    .fil62 {fill:#8B8B8B;fill-rule:nonzero}
    .fil22 {fill:#B1AFB3;fill-rule:nonzero}
    .fil11 {fill:#C63338;fill-rule:nonzero}
    .fil29 {fill:#D0EAEA;fill-rule:nonzero}
    .fil38 {fill:#EB9820;fill-rule:nonzero}
    .fil28 {fill:#F1F4D2;fill-rule:nonzero}
    .fil7 {fill:#F55561;fill-rule:nonzero}
    .fil6 {fill:white;fill-rule:nonzero}
    .fil19 {fill:#0F0C0F;fill-rule:nonzero}
    .fil24 {fill:#454545;fill-rule:nonzero}
    .fil31 {fill:#D7D7D7;fill-rule:nonzero}
    .fil23 {fill:#EBEBEC;fill-rule:nonzero}
    .fil0 {fill:#EFEFF0;fill-rule:nonzero}
    .fil43 {fill:black;fill-rule:nonzero;fill-opacity:0.101961}
    .fil10 {fill:black;fill-rule:nonzero;fill-opacity:0.149020}
    .fil36 {fill:black;fill-rule:nonzero;fill-opacity:0.200000}
    .fil53 {fill:#EB9820;fill-rule:nonzero;fill-opacity:0.301961}
    .fil39 {fill:#FFAB70;fill-rule:nonzero;fill-opacity:0.301961}
    .fil35 {fill:#C1C2C2;fill-rule:nonzero;fill-opacity:0.301961}
    .fil34 {fill:#D7D7D7;fill-rule:nonzero;fill-opacity:0.301961}
    .fil33 {fill:#E1E1E1;fill-rule:nonzero;fill-opacity:0.301961}
    .fil57 {fill:#EB9820;fill-rule:nonzero;fill-opacity:0.400000}
    .fil21 {fill:#2A2953;fill-rule:nonzero;fill-opacity:0.600000}
    .fil16 {fill:#C63338;fill-rule:nonzero}
    .fil17 {fill:#D7D7D7;fill-rule:nonzero}
    .fil30 {fill:url(#id0);fill-rule:nonzero}
    .fil48 {fill:url(#id1);fill-rule:nonzero}
    .fil5 {fill:url(#id2);fill-rule:nonzero}
    .fil32 {fill:url(#id3);fill-rule:nonzero}
    .fil58 {fill:url(#id4);fill-rule:nonzero}
    .fil45 {fill:url(#id5);fill-rule:nonzero}
    .fil46 {fill:url(#id6);fill-rule:nonzero}
    .fil47 {fill:url(#id7);fill-rule:nonzero}
    .fil42 {fill:url(#id8);fill-rule:nonzero}
    .fil18 {fill:url(#id9);fill-rule:nonzero}
    .fil44 {fill:url(#id10);fill-rule:nonzero}
    .fil49 {fill:url(#id11);fill-rule:nonzero}
    .fil56 {fill:url(#id12);fill-rule:nonzero}
    .fil50 {fill:url(#id13);fill-rule:nonzero}
    .fil52 {fill:url(#id14);fill-rule:nonzero}
    .fil37 {fill:url(#id15);fill-rule:nonzero}
    .fil51 {fill:url(#id16);fill-rule:nonzero}
    .fil60 {fill:url(#id17);fill-rule:nonzero}
    .fil61 {fill:url(#id18);fill-rule:nonzero}
    .fil12 {fill:url(#id19);fill-rule:nonzero}
    .fil2 {fill:url(#id20);fill-rule:nonzero}
    .fil41 {fill:url(#id21);fill-rule:nonzero}
    .fil8 {fill:url(#id22);fill-rule:nonzero}
    .fil14 {fill:url(#id23);fill-rule:nonzero}
    .fil4 {fill:url(#id24);fill-rule:nonzero}
    .fil9 {fill:url(#id25);fill-rule:nonzero}
    .fil1 {fill:url(#id26);fill-rule:nonzero}
    .fil63 {fill:url(#id27);fill-rule:nonzero}
    .fil54 {fill:url(#id28);fill-rule:nonzero}
    .fil3 {fill:url(#id29);fill-rule:nonzero}
    .fil55 {fill:url(#id30);fill-rule:nonzero}
    .fil13 {fill:url(#id31);fill-rule:nonzero;fill-opacity:0.301961}
    .fil59 {fill:url(#id32);fill-rule:nonzero;fill-opacity:0.600000}
    .fil40 {fill:url(#id33);fill-rule:nonzero;fill-opacity:0.600000}
    .fil26 {fill:url(#id34);fill-rule:nonzero}
    .fil27 {fill:url(#id35);fill-rule:nonzero}
    .fil15 {fill:url(#id36);fill-rule:nonzero}
   ]]>
  </style>
  <linearGradient id="id0" gradientUnits="userSpaceOnUse" x1="3074.57" y1="2286.63" x2="3074.57" y2="2336.69">
   <stop offset="0" style="stop-opacity:1; stop-color:white"/>
   <stop offset="1" style="stop-opacity:1; stop-color:#C8C8C9"/>
  </linearGradient>
  <linearGradient id="id1" gradientUnits="userSpaceOnUse" x1="2126.27" y1="1578.48" x2="2126.27" y2="1543.87">
   <stop offset="0" style="stop-opacity:1; stop-color:#804DB0"/>
   <stop offset="1" style="stop-opacity:1; stop-color:#BD6FD3"/>
  </linearGradient>
  <linearGradient id="id2" gradientUnits="userSpaceOnUse" x1="2246.59" y1="1839.33" x2="2246.59" y2="2490.5">
   <stop offset="0" style="stop-opacity:1; stop-color:#FBD7F8"/>
   <stop offset="1" style="stop-opacity:1; stop-color:#FBEAF8"/>
  </linearGradient>
  <linearGradient id="id3" gradientUnits="userSpaceOnUse" x1="2787.39" y1="1845.5" x2="2787.39" y2="2185.37">
   <stop offset="0" style="stop-opacity:1; stop-color:white"/>
   <stop offset="1" style="stop-opacity:1; stop-color:#E1E1E1"/>
  </linearGradient>
  <linearGradient id="id4" gradientUnits="userSpaceOnUse" x1="1725.94" y1="646.22" x2="1725.94" y2="703.925">
   <stop offset="0" style="stop-opacity:1; stop-color:#FFD149"/>
   <stop offset="1" style="stop-opacity:1; stop-color:#FCAF31"/>
  </linearGradient>
  <linearGradient id="id5" gradientUnits="userSpaceOnUse" xlink:href="#id1" x1="2037.84" y1="1578.48" x2="2037.84" y2="1530.48">
  </linearGradient>
  <linearGradient id="id6" gradientUnits="userSpaceOnUse" xlink:href="#id1" x1="2061.36" y1="1591.35" x2="2061.36" y2="1531.81">
  </linearGradient>
  <linearGradient id="id7" gradientUnits="userSpaceOnUse" xlink:href="#id1" x1="2091.17" y1="1578.48" x2="2091.17" y2="1543.87">
  </linearGradient>
  <linearGradient id="id8" gradientUnits="userSpaceOnUse" x1="1309.48" y1="2151.33" x2="1309.48" y2="2024.82">
   <stop offset="0" style="stop-opacity:1; stop-color:#FFBC49"/>
   <stop offset="1" style="stop-opacity:1; stop-color:#FFCB59"/>
  </linearGradient>
  <linearGradient id="id9" gradientUnits="userSpaceOnUse" x1="2808.13" y1="2255.13" x2="2808.13" y2="2239">
   <stop offset="0" style="stop-opacity:1; stop-color:#4C2971"/>
   <stop offset="1" style="stop-opacity:1; stop-color:#7D3F94"/>
  </linearGradient>
  <linearGradient id="id10" gradientUnits="userSpaceOnUse" xlink:href="#id1" x1="1995.93" y1="1578.48" x2="1995.93" y2="1532.33">
  </linearGradient>
  <linearGradient id="id11" gradientUnits="userSpaceOnUse" xlink:href="#id1" x1="2153.86" y1="1578.48" x2="2153.86" y2="1536.38">
  </linearGradient>
  <linearGradient id="id12" gradientUnits="userSpaceOnUse" xlink:href="#id2" x1="1662.94" y1="1224.55" x2="1788.94" y2="785.063">
  </linearGradient>
  <linearGradient id="id13" gradientUnits="userSpaceOnUse" xlink:href="#id1" x1="2174.78" y1="1577.87" x2="2174.78" y2="1531.81">
  </linearGradient>
  <linearGradient id="id14" gradientUnits="userSpaceOnUse" xlink:href="#id1" x1="2234.49" y1="1578.48" x2="2234.49" y2="1543.87">
  </linearGradient>
  <linearGradient id="id15" gradientUnits="userSpaceOnUse" xlink:href="#id8" x1="1030.96" y1="2547.46" x2="875.413" y2="2325.9">
  </linearGradient>
  <linearGradient id="id16" gradientUnits="userSpaceOnUse" xlink:href="#id1" x1="2199.95" y1="1577.87" x2="2199.95" y2="1544.47">
  </linearGradient>
  <linearGradient id="id17" gradientUnits="userSpaceOnUse" x1="1774.4" y1="1020.28" x2="1843.33" y2="804.5">
   <stop offset="0" style="stop-opacity:1; stop-color:#FBADC1"/>
   <stop offset="1" style="stop-opacity:1; stop-color:#FBDEE6"/>
  </linearGradient>
  <linearGradient id="id18" gradientUnits="userSpaceOnUse" xlink:href="#id1" x1="1368" y1="1733.11" x2="1475.37" y2="1568.23">
  </linearGradient>
  <linearGradient id="id19" gradientUnits="userSpaceOnUse" x1="3560.63" y1="2008.85" x2="3351.62" y2="2193.4">
   <stop offset="0" style="stop-opacity:1; stop-color:#FFBC49"/>
   <stop offset="1" style="stop-opacity:1; stop-color:#FCAF31"/>
  </linearGradient>
  <linearGradient id="id20" gradientUnits="userSpaceOnUse" xlink:href="#id1" x1="2226.36" y1="1040.39" x2="2221.26" y2="983.398">
  </linearGradient>
  <linearGradient id="id21" gradientUnits="userSpaceOnUse" xlink:href="#id8" x1="1245.24" y1="2533.55" x2="1347.09" y2="2283.1">
  </linearGradient>
  <linearGradient id="id22" gradientUnits="userSpaceOnUse" xlink:href="#id9" x1="1746.71" y1="2447.81" x2="1830.49" y2="2328.88">
  </linearGradient>
  <linearGradient id="id23" gradientUnits="userSpaceOnUse" xlink:href="#id9" x1="3000.35" y1="2300.69" x2="2670.5" y2="2300.69">
  </linearGradient>
  <linearGradient id="id24" gradientUnits="userSpaceOnUse" xlink:href="#id1" x1="2190.22" y1="3386.04" x2="2299.11" y2="3222.61">
  </linearGradient>
  <linearGradient id="id25" gradientUnits="userSpaceOnUse" xlink:href="#id1" x1="2154.3" y1="1788.78" x2="2224.22" y2="1681.09">
  </linearGradient>
  <linearGradient id="id26" gradientUnits="userSpaceOnUse" xlink:href="#id9" x1="1884.58" y1="2158.07" x2="2600.81" y2="2158.07">
  </linearGradient>
  <linearGradient id="id27" gradientUnits="userSpaceOnUse" xlink:href="#id4" x1="3130.43" y1="1425.35" x2="2998.83" y2="1616.08">
  </linearGradient>
  <linearGradient id="id28" gradientUnits="userSpaceOnUse" xlink:href="#id4" x1="1838.19" y1="798.681" x2="1613.7" y2="1210.93">
  </linearGradient>
  <linearGradient id="id29" gradientUnits="userSpaceOnUse" xlink:href="#id1" x1="2500.66" y1="1033.57" x2="2451.84" y2="994.575">
  </linearGradient>
  <linearGradient id="id30" gradientUnits="userSpaceOnUse" x1="1557" y1="1175.48" x2="1894.88" y2="834.114">
   <stop offset="0" style="stop-opacity:1; stop-color:#FFBC49"/>
   <stop offset="1" style="stop-opacity:1; stop-color:#EA8B31"/>
  </linearGradient>
  <linearGradient id="id31" gradientUnits="userSpaceOnUse" xlink:href="#id19" x1="3176" y1="2116.98" x2="3701.54" y2="2116.98">
  </linearGradient>
  <linearGradient id="id32" gradientUnits="userSpaceOnUse" xlink:href="#id4" x1="1562.16" y1="804.827" x2="1653.66" y2="804.827">
  </linearGradient>
  <linearGradient id="id33" gradientUnits="userSpaceOnUse" x1="1108.69" y1="2436.68" x2="1068.31" y2="2436.68">
   <stop offset="0" style="stop-opacity:1; stop-color:black"/>
   <stop offset="1" style="stop-opacity:1; stop-color:white"/>
  </linearGradient>
  <linearGradient id="id34" gradientUnits="userSpaceOnUse" xlink:href="#id19" x1="3238.51" y1="2140.33" x2="3242.35" y2="2140.33">
  </linearGradient>
  <linearGradient id="id35" gradientUnits="userSpaceOnUse" xlink:href="#id19" x1="3283.93" y1="2115.76" x2="3331.35" y2="2115.76">
  </linearGradient>
  <linearGradient id="id36" gradientUnits="userSpaceOnUse" xlink:href="#id19" x1="3668.35" y1="2269.82" x2="3668.35" y2="2266.98">
  </linearGradient>
 </defs>
 <g id="Layer_x0020_1">
  <metadata id="CorelCorpID_0Corel-Layer"/>
  <g id="_956147440">
   <g>
    <path class="fil0" d="M2720 872c80,0 146,66 146,146l1 2279c0,81 -65,147 -146,147l-955 0c-81,0 -147,-66 -147,-146l-1 -2279c0,-81 66,-146 147,-147l955 0z"/>
    <g>
     <path class="fil0" d="M1608 1661c0,9 5,17 10,17 6,0 11,-8 11,-17l0 -256c0,-10 -5,-18 -11,-18 -6,0 -10,8 -10,18l0 256z"/>
    </g>
    <g>
     <path class="fil0" d="M2860 1741c0,10 4,17 10,17 6,0 10,-7 10,-17l0 -148c0,-10 -4,-18 -10,-18 -6,0 -10,8 -10,18l0 148z"/>
    </g>
    <g>
     <path class="fil0" d="M2860 1535c0,9 4,17 10,17 6,0 10,-8 10,-17l0 -148c0,-10 -5,-18 -10,-18 -6,0 -10,8 -10,18l0 148z"/>
    </g>
    <g>
     <path class="fil0" d="M2860 1314c0,10 4,17 10,17 5,0 10,-7 10,-17l0 -99c0,-9 -5,-17 -10,-17 -6,0 -10,8 -10,17l0 99z"/>
    </g>
   </g>
   <g>
    <path class="fil1" d="M1626 3298c0,76 63,139 140,139l955 0c76,0 139,-63 139,-140l-1 -2279c0,-76 -63,-139 -139,-139l-955 0c-77,0 -140,63 -140,140l1 2279z"/>
   </g>
   <g>
    <g>
     <g>
      <path class="fil2" d="M2402 1012c0,7 -6,13 -13,13l-330 0c-8,0 -14,-6 -14,-13 0,-7 6,-13 14,-13l330 0c7,0 13,6 13,13z"/>
     </g>
     <g>
      <path class="fil3" d="M2498 1014c0,12 -9,22 -22,22 -12,0 -22,-10 -22,-22 0,-12 10,-22 22,-22 13,0 22,10 22,22z"/>
     </g>
    </g>
   </g>
   <g>
    <g>
     <path class="fil4" d="M2249 3235c18,0 35,7 49,20 13,13 20,31 20,49 0,19 -7,36 -20,49 -14,13 -31,21 -49,21l-8 0c-38,0 -69,-32 -69,-70 0,-38 31,-69 69,-69l8 0z"/>
    </g>
   </g>
   <g>
    <g>
     <polygon class="fil5" points="1666,3182 2828,3182 2827,1147 1665,1148 "/>
    </g>
    <path class="fil6" d="M2827 1394l0 -21 -156 0 0 -226 -20 1 0 225 -162 0 0 -225 -20 0 0 363 -271 0 0 -363 -21 0 0 363 -259 0 0 -363 -21 0 0 363 -21 0 0 -363 -21 0 0 363 -190 0 0 21 190 0 0 575 -190 0 0 21 190 0 0 407c0,15 -1,30 -1,44l-188 0 0 21 186 0c-14,144 -78,247 -186,303l0 24c121,-57 192,-169 207,-327l22 0c-8,118 -48,212 -119,278 -31,29 -68,52 -110,70l0 22c48,-19 89,-44 124,-77 6,-5 11,-11 17,-16 27,51 98,144 258,144l112 0 0 161 21 0 0 -161 271 0 0 161 20 0 0 -161 162 0 0 161 20 0 0 -161 157 0 0 -21 -157 0 0 -515 157 0 0 -21 -157 0 0 -336 157 0 0 -21 -157 0 0 -367 157 0 0 -21 -157 0 0 -325 156 0zm-951 138l0 0 21 0 0 575 -21 0 0 -575zm-2 1047l0 0c1,-14 2,-29 2,-44l0 -407 21 0 0 423c0,9 0,19 -1,28l-22 0zm303 421l0 0 -112 0c-157,0 -222,-94 -243,-140 55,-67 87,-154 94,-260l261 0 0 400zm0 -421l0 0 -260 0c1,-9 1,-19 1,-28l0 -423 259 0 0 451zm0 -472l0 0 -259 0 0 -575 259 0 0 575zm21 -575l0 0 271 0 0 187 -271 0 0 -187zm0 208l0 0 271 0 0 337c-15,4 -27,16 -31,30l-240 0 0 -367zm271 1260l0 0 -271 0 0 -515 271 0 0 515zm0 -536l0 0 -271 0 0 -336 240 0c4,15 15,27 31,31l0 305zm10 -324l0 0c-4,0 -7,-1 -10,-3l0 0c-4,-2 -7,-5 -9,-9 -2,-3 -3,-6 -3,-10 0,-4 2,-8 4,-11 1,-3 4,-6 8,-8 0,0 0,0 0,0 3,-1 6,-3 10,-3 4,0 7,1 10,3 0,0 0,0 0,0 4,2 7,5 9,8 2,3 3,7 3,11 0,4 -1,7 -3,10 -2,4 -5,7 -9,9l0 0c-3,2 -6,3 -10,3zm172 860l0 0 -162 0 0 -515 162 0 0 515zm0 -536l0 0 -162 0 0 -305c16,-4 28,-16 31,-31l131 0 0 336zm0 -357l0 0 -131 0c-4,-15 -16,-26 -31,-30l0 -337 162 0 0 367zm0 -388l0 0 -162 0 0 -325 162 0 0 325z"/>
   </g>
   <g>
    <g>
     <path class="fil7" d="M2512 1491c0,72 96,176 96,176 0,0 95,-104 95,-176 0,-52 -43,-95 -95,-95 -53,0 -96,43 -96,95z"/>
    </g>
    <g>
     <path class="fil6" d="M2550 1491c0,32 26,58 58,58 32,0 57,-26 57,-58 0,-32 -25,-58 -57,-58 -32,0 -58,26 -58,58z"/>
    </g>
   </g>
   <g>
    <path class="fil7" d="M2632 1729c0,14 -12,25 -26,25 -14,0 -25,-11 -25,-25 0,-14 11,-26 25,-26 14,0 26,12 26,26z"/>
   </g>
   <g>
    <path class="fil8" d="M1694 2348c0,72 95,176 95,176 0,0 95,-104 95,-176 0,-52 -43,-95 -95,-95 -53,0 -95,43 -95,95z"/>
    <g>
     <path class="fil6" d="M1731 2348c0,32 26,58 58,58 32,0 57,-26 57,-58 0,-32 -25,-58 -57,-58 -32,0 -58,26 -58,58z"/>
    </g>
   </g>
   <g>
    <path class="fil7" d="M1816 2587c0,16 -12,28 -28,28 -15,0 -27,-12 -27,-28 0,-15 12,-28 27,-28 16,0 28,13 28,28z"/>
   </g>
   <g>
    <g>
     <path class="fil7" d="M2186 1718c-7,0 -12,6 -12,13 0,0 0,821 0,845 -23,0 -370,0 -370,0 -7,0 -12,5 -12,12 0,7 5,12 12,12l382 0c7,0 13,-5 13,-12 0,0 0,-821 0,-845 23,0 389,0 389,0 7,0 12,-6 12,-12 0,-7 -5,-13 -12,-13l-402 0z"/>
    </g>
   </g>
   <g>
    <path class="fil9" d="M2236 1735c0,26 -21,46 -47,46 -25,0 -46,-20 -46,-46 0,-26 21,-46 46,-46 26,0 47,20 47,46z"/>
    <g>
     <path class="fil6" d="M2216 1735c0,15 -12,27 -27,27 -14,0 -26,-12 -26,-27 0,-15 12,-27 26,-27 15,0 27,12 27,27z"/>
    </g>
   </g>
   <g>
    <path class="fil10" d="M2420 2427c0,6 294,11 655,11 362,0 655,-5 655,-11 0,-6 -293,-11 -655,-11 -361,0 -655,5 -655,11z"/>
    <g>
     <g>
      <path class="fil11" d="M3388 2336l315 0c5,-5 32,-38 31,-64 0,0 0,-1 0,-2 -25,0 -25,0 -25,0 -1,0 -2,0 -2,-2 0,0 -2,-93 -2,-113 1,-18 -45,-40 -92,-51 -47,-12 -47,-12 -47,-12 -1,0 -151,-146 -189,-189 -29,-34 -67,-37 -141,-37 -17,0 -36,0 -58,0l0 470 210 0z"/>
     </g>
     <path class="fil12" d="M3176 1864l0 474 212 0 316 0c0,0 35,-40 32,-70 -27,0 -27,0 -27,0 0,0 -2,-93 -2,-113 0,-21 -47,-41 -93,-53 -47,-12 -47,-12 -47,-12 0,0 -150,-146 -188,-188 -38,-43 -88,-38 -203,-38z"/>
     <path class="fil13" d="M3176 2142l0 -50 398 0c6,2 18,4 40,10 37,9 74,24 88,40l-526 0z"/>
     <g>
      <polygon class="fil14" points="2492,2261 3179,2261 3179,2317 2923,2317 2923,2341 2531,2341 2531,2317 2492,2317 "/>
     </g>
     <g>
      <polygon class="fil15" points="3709,2270 3709,2266 3628,2266 3628,2270 "/>
     </g>
     <g>
      <path class="fil16" d="M3418 1967c-7,-14 -27,-16 -52,-16 0,0 -1,0 -2,0 -3,0 -7,0 -11,0 -26,0 -61,0 -69,0l0 136 196 1c-9,-17 -54,-105 -62,-121z"/>
     </g>
     <g>
      <path class="fil16" d="M3690 2221l16 0c0,-23 0,-49 -1,-62l-15 0 0 62z"/>
     </g>
     <g>
      <path class="fil17" d="M2994 2348l0 -3 0 3zm157 -3l0 0 0 -66 -153 0 0 66 153 0z"/>
     </g>
     <g>
      <polygon class="fil18" points="2522,2262 3094,2262 3094,2232 2522,2232 "/>
     </g>
     <g>
      <path class="fil19" d="M2620 2334c0,53 43,96 96,96 53,0 96,-43 96,-96 0,-53 -43,-96 -96,-96 -53,0 -96,43 -96,96z"/>
      <g>
       <path class="fil20" d="M2620 2335c0,53 43,96 96,96 53,0 96,-43 96,-96 0,-53 -43,-96 -96,-96 -53,0 -96,43 -96,96z"/>
      </g>
      <g>
       <path class="fil21" d="M2716 2245c-28,0 -53,12 -70,29 16,-21 42,-34 70,-34 29,0 54,13 70,34 -15,-17 -42,-29 -70,-29z"/>
      </g>
      <path class="fil22" d="M2664 2334c0,28 23,52 52,52 29,0 52,-24 52,-52 0,-29 -23,-52 -52,-52 -29,0 -52,23 -52,52z"/>
      <path class="fil23" d="M2682 2334c0,19 15,34 34,34 19,0 35,-15 35,-34 0,-19 -16,-35 -35,-35 -19,0 -34,16 -34,35z"/>
      <path class="fil24" d="M2716 2390c22,0 41,-13 50,-31 -8,19 -27,33 -50,33 -23,0 -42,-14 -50,-33 9,18 28,31 50,31z"/>
     </g>
     <g>
      <path class="fil25" d="M3547 2227c59,0 108,49 108,108 0,1 -1,2 -1,3l-214 0c0,-1 0,-2 0,-3 0,-59 48,-108 107,-108z"/>
     </g>
     <g>
      <path class="fil19" d="M3451 2334c0,53 43,96 96,96 53,0 96,-43 96,-96 0,-53 -43,-96 -96,-96 -53,0 -96,43 -96,96z"/>
      <g>
       <path class="fil20" d="M3451 2335c0,53 43,96 96,96 53,0 96,-43 96,-96 0,-53 -43,-96 -96,-96 -53,0 -96,43 -96,96z"/>
      </g>
      <g>
       <path class="fil21" d="M3547 2245c-28,0 -53,12 -70,29 16,-21 42,-34 70,-34 29,0 54,13 70,34 -15,-17 -42,-29 -70,-29z"/>
      </g>
      <path class="fil22" d="M3495 2334c0,28 23,52 52,52 29,0 52,-24 52,-52 0,-29 -23,-52 -52,-52 -29,0 -52,23 -52,52z"/>
      <path class="fil23" d="M3510 2334c0,20 17,37 37,37 21,0 37,-17 37,-37 0,-21 -16,-37 -37,-37 -20,0 -37,16 -37,37z"/>
      <path class="fil24" d="M3547 2390c22,0 41,-13 50,-31 -8,19 -27,33 -50,33 -23,0 -42,-14 -50,-33 9,18 28,31 50,31z"/>
     </g>
     <g>
      <path class="fil26" d="M3242 2334l0 -387c0,-1 -1,-2 -2,-2 -1,0 -1,1 -1,2l0 387c0,1 0,2 1,2 1,0 2,-1 2,-2z"/>
     </g>
     <polygon class="fil27" points="3331,2122 3284,2122 3284,2110 3331,2110 "/>
     <path class="fil28" d="M3708 2223l-20 0 0 -66 19 0c0,13 1,41 1,66z"/>
     <path class="fil29" d="M3558 2082l-5 4 -50 0 -69 -126c46,46 103,101 124,122z"/>
     <path class="fil29" d="M3483 2090c0,0 -54,-106 -63,-124 -9,-18 -37,-16 -67,-16 -30,0 -71,0 -71,0l0 139 201 1z"/>
     <polygon class="fil30" points="2994,2348 3155,2348 3155,2275 2994,2275 "/>
     <g>
      <g>
       <polygon class="fil31" points="2432,2230 2432,2226 "/>
      </g>
      <path class="fil32" d="M2432 2209c0,13 11,24 25,24l661 0c14,0 25,-11 25,-24l0 -387c0,-13 -11,-24 -25,-24l-661 0c-14,0 -25,11 -25,24l0 387z"/>
      <g>
       <path class="fil33" d="M3079 2208l-581 0c-21,0 -38,-15 -38,-33l0 -322c0,-18 17,-33 38,-33l581 0c21,0 38,15 38,33l0 322c0,18 -17,33 -38,33zm35 -355l0 0c0,-15 -16,-29 -35,-29l-581 0c-19,0 -34,14 -34,29l0 322c0,16 15,29 34,29l581 0c19,0 35,-13 35,-29l0 -322z"/>
      </g>
     </g>
     <polygon class="fil33" points="2483,1914 3094,1914 3094,1910 2483,1910 "/>
     <polygon class="fil34" points="2483,2021 3094,2021 3094,2017 2483,2017 "/>
     <polygon class="fil35" points="2483,2128 3094,2128 3094,2124 2483,2124 "/>
    </g>
   </g>
   <g>
    <path class="fil36" d="M1595 2597c0,8 -201,15 -448,15 -248,0 -449,-7 -449,-15 0,-9 201,-15 449,-15 247,0 448,6 448,15z"/>
    <g>
     <g>
      <g>
       <path class="fil37" d="M1146 2590c0,4 -3,7 -7,7l-371 0c-4,0 -7,-3 -7,-7l0 -306c0,-4 3,-7 7,-7l371 0c4,0 7,3 7,7l0 306z"/>
      </g>
      <g>
       <path class="fil38" d="M1018 2321c0,7 -6,13 -13,13l-103 0c-8,0 -14,-6 -14,-13 0,-8 6,-14 14,-14l103 0c7,0 13,6 13,14z"/>
      </g>
      <path class="fil39" d="M761 2284l0 4 385 0 0 -4c0,-2 -1,-3 -1,-4l-383 0c-1,1 -1,2 -1,4z"/>
     </g>
     <path class="fil40" d="M1137 2590l0 -306c0,-4 -4,-7 -8,-7l-89 0 0 311c0,5 4,9 9,9l80 0c4,0 8,-3 8,-7z"/>
     <g>
      <g>
       <g>
        <path class="fil41" d="M1523 2588c0,5 -4,9 -9,9l-436 0c-5,0 -9,-4 -9,-9l0 -360c0,-4 4,-8 9,-8l436 0c5,0 9,4 9,8l0 360z"/>
       </g>
      </g>
      <g>
       <path class="fil38" d="M1373 2272c0,9 -7,16 -16,16l-121 0c-9,0 -16,-7 -16,-16 0,-9 7,-16 16,-16l121 0c9,0 16,7 16,16z"/>
      </g>
      <path class="fil39" d="M1069 2228l0 6 454 0 0 -6c0,-1 -1,-3 -1,-4l-451 0c-1,1 -2,3 -2,4z"/>
     </g>
     <g>
      <g>
       <path class="fil42" d="M1468 2214c0,3 -3,6 -6,6l-305 0c-3,0 -6,-3 -6,-6l0 -252c0,-3 3,-6 6,-6l305 0c3,0 6,3 6,6l0 252z"/>
      </g>
      <g>
       <path class="fil38" d="M1363 1993c0,6 -5,11 -11,11l-85 0c-6,0 -11,-5 -11,-11 0,-6 5,-11 11,-11l85 0c6,0 11,5 11,11z"/>
      </g>
      <path class="fil39" d="M1151 1962l0 4 317 0 0 -4c0,-1 0,-2 -1,-3l-315 0c-1,1 -1,2 -1,3z"/>
     </g>
    </g>
   </g>
   <path class="fil43" d="M2269 1496l-340 0c-14,0 -25,11 -25,24l0 95c0,14 11,25 25,25l143 0c1,0 54,53 54,53 8,7 10,3 9,-2 0,0 -10,-51 -10,-51l144 0c13,0 24,-11 24,-25l0 -95c0,-13 -11,-24 -24,-24z"/>
   <g>
    <path class="fil6" d="M2283 1484l-340 0c-13,0 -24,11 -24,25l0 95c0,13 11,24 24,24l144 0c0,1 54,53 54,53 7,8 10,3 9,-2 0,0 -11,-50 -10,-51l143 0c14,0 25,-11 25,-24l0 -95c0,-14 -11,-25 -25,-25z"/>
    <g>
     <path class="fil44" d="M2015 1557c0,3 -1,6 -2,9 -1,2 -2,5 -4,7 -1,2 -3,3 -5,4 -3,1 -5,1 -8,1 -3,0 -5,0 -8,-1 -2,-1 -4,-2 -5,-4 -2,-2 -3,-5 -4,-7 -1,-3 -2,-6 -2,-9l0 -3c0,-3 1,-6 2,-9 1,-3 2,-5 3,-7 2,-2 4,-3 6,-4 3,-1 5,-2 8,-2 3,0 5,1 8,2 2,1 4,2 5,4 2,2 3,4 4,7 1,3 2,6 2,9l0 3zm-8 -3l0 0c0,-2 0,-4 -1,-6 0,-2 -1,-4 -2,-5 -1,-2 -2,-3 -3,-3 -2,-1 -3,-1 -5,-1 -2,0 -3,0 -5,1 -1,0 -2,1 -3,3 -1,1 -2,3 -2,5 -1,2 -1,4 -1,6l0 3c0,2 0,4 1,6 0,2 1,4 2,5 1,1 2,2 3,3 2,1 3,1 5,1 3,0 6,-1 8,-4 2,-3 3,-6 3,-11l0 -3z"/>
     <path class="fil45" d="M2052 1562c0,2 0,4 0,6 -1,2 -2,4 -3,6 -1,1 -2,2 -4,3 -2,1 -3,1 -6,1 -2,0 -3,0 -5,-1 -1,0 -3,-1 -4,-3l0 4 -7 0 0 -48 8 0 0 18c1,-2 2,-2 3,-3 2,-1 3,-1 5,-1 3,0 4,0 6,1 2,1 3,2 4,4 1,1 2,3 3,5 0,2 0,4 0,7l0 1zm-7 -1l0 0c0,-2 0,-3 0,-4 -1,-2 -1,-3 -2,-4 0,-1 -1,-2 -2,-2 -1,-1 -2,-1 -3,-1 -2,0 -4,0 -5,1 -1,1 -2,2 -2,3l0 14c0,1 1,2 2,3 1,1 3,1 5,1 1,0 2,0 3,0 1,-1 2,-2 2,-3 1,-1 1,-2 2,-3 0,-2 0,-3 0,-4l0 -1z"/>
     <path class="fil46" d="M2068 1544l0 37c0,3 -1,6 -2,8 -2,1 -5,2 -8,2 0,0 -1,0 -2,0 -1,0 -1,0 -2,0l0 -6c1,0 1,0 2,0 0,0 0,0 1,0 1,0 2,0 3,-1 0,0 1,-2 1,-3l0 -37 7 0zm-8 -8l0 0c0,-1 0,-2 1,-3 1,-1 2,-1 3,-1 2,0 3,0 3,1 1,1 2,2 2,3 0,1 -1,2 -2,3 0,0 -1,1 -3,1 -1,0 -2,-1 -3,-1 -1,-1 -1,-2 -1,-3z"/>
     <path class="fil47" d="M2092 1578c-2,0 -4,0 -6,-1 -2,-1 -4,-2 -5,-3 -2,-2 -3,-3 -3,-5 -1,-2 -2,-4 -2,-7l0 -1c0,-3 1,-5 2,-7 0,-2 2,-4 3,-5 1,-2 3,-3 5,-4 2,-1 3,-1 6,-1 2,0 4,0 6,1 2,1 3,2 4,3 2,2 2,4 3,6 1,2 1,4 1,6l0 4 -22 0c0,1 0,2 1,3 0,1 1,2 2,3 0,1 1,1 2,2 1,0 3,0 4,0 2,0 3,0 5,-1 1,0 2,-1 3,-3l4 4c0,1 -1,2 -2,3 0,0 -1,1 -2,2 -1,0 -3,1 -4,1 -1,0 -3,0 -5,0zm0 -28l0 0c-2,0 -4,1 -5,2 -2,1 -2,3 -3,6l14 0 0 0c0,-1 0,-2 0,-3 0,-1 -1,-2 -1,-3 -1,-1 -1,-1 -2,-1 -1,-1 -2,-1 -3,-1z"/>
     <path class="fil48" d="M2127 1572c1,0 2,0 3,0 0,0 1,-1 2,-1 0,-1 1,-1 1,-2 0,-1 1,-1 1,-2l7 0c0,1 -1,3 -2,4 0,2 -1,3 -2,4 -2,1 -3,2 -5,3 -1,0 -3,0 -5,0 -2,0 -5,0 -7,-1 -2,-1 -3,-2 -4,-3 -2,-2 -3,-4 -3,-6 -1,-2 -1,-4 -1,-6l0 -1c0,-3 0,-5 1,-7 0,-2 1,-4 3,-5 1,-2 2,-3 4,-4 2,-1 4,-1 7,-1 2,0 4,0 6,1 1,0 3,1 4,2 1,1 2,3 3,4 0,2 1,4 1,5l-7 0c0,0 -1,-1 -1,-2 0,-1 -1,-2 -1,-2 -1,-1 -2,-1 -2,-2 -1,0 -2,0 -3,0 -2,0 -3,0 -4,1 -1,0 -2,1 -2,2 -1,1 -1,2 -1,4 -1,1 -1,2 -1,4l0 1c0,1 0,2 1,4 0,1 0,2 1,3 0,1 1,2 2,3 1,0 2,0 4,0z"/>
     <path class="fil49" d="M2157 1536l0 8 6 0 0 6 -6 0 0 19c0,0 0,1 1,2 0,0 0,0 0,1 1,0 1,0 1,0 1,0 1,0 2,0 0,0 1,0 1,0 1,0 1,0 1,0l0 6c0,0 -1,0 -2,0 0,0 -1,0 -3,0 -1,0 -2,0 -3,0 -1,0 -2,-1 -3,-2 0,0 -1,-1 -2,-3 0,-1 0,-2 0,-4l0 -19 -6 0 0 -6 6 0 0 -8 7 0z"/>
     <path class="fil50" d="M2171 1536c0,-1 0,-2 1,-3 0,-1 1,-1 3,-1 1,0 2,0 3,1 1,1 1,2 1,3 0,1 0,2 -1,3 -1,0 -2,1 -3,1 -2,0 -3,-1 -3,-1 -1,-1 -1,-2 -1,-3zm8 42l0 0 -8 0 0 -34 8 0 0 34z"/>
     <polygon class="fil51" points="2200,1568 2207,1544 2215,1544 2203,1578 2197,1578 2185,1544 2193,1544 "/>
     <path class="fil52" d="M2236 1578c-3,0 -5,0 -7,-1 -2,-1 -4,-2 -5,-3 -1,-2 -2,-3 -3,-5 -1,-2 -1,-4 -1,-7l0 -1c0,-3 0,-5 1,-7 1,-2 2,-4 3,-5 2,-2 3,-3 5,-4 2,-1 4,-1 6,-1 2,0 4,0 6,1 2,1 4,2 5,3 1,2 2,4 2,6 1,2 1,4 1,6l0 4 -22 0c0,1 1,2 1,3 1,1 1,2 2,3 1,1 2,1 3,2 1,0 2,0 3,0 2,0 4,0 5,-1 1,0 3,-1 4,-3l4 4c-1,1 -2,2 -2,3 -1,0 -2,1 -3,2 -1,0 -2,1 -4,1 -1,0 -3,0 -4,0zm-1 -28l0 0c-2,0 -4,1 -5,2 -1,1 -2,3 -3,6l15 0 0 0c0,-1 0,-2 -1,-3 0,-1 0,-2 -1,-3 0,-1 -1,-1 -2,-1 -1,-1 -2,-1 -3,-1z"/>
    </g>
   </g>
   <path class="fil43" d="M1918 850l7 -9 11 -16c6,-7 4,-18 -3,-23l-22 -16c-7,-6 -18,-4 -23,3l-18 25c-32,-19 -68,-31 -106,-34l0 -37 29 0c17,0 32,-15 32,-32 0,-18 -15,-32 -32,-32l-109 0c-18,0 -32,14 -32,32 0,17 14,32 32,32l28 0 0 37c-132,13 -236,124 -236,260 0,145 118,263 262,263 145,0 262,-118 262,-263 0,-75 -31,-142 -82,-190z"/>
   <g>
    <g>
     <polygon class="fil38" points="1752,750 1700,750 1700,689 1752,689 "/>
    </g>
    <g>
     <g>
      <path class="fil38" d="M1902 819c-5,8 -16,9 -23,4l-22 -16c-7,-6 -9,-16 -3,-24l21 -29c6,-8 17,-9 24,-4l22 16c7,6 9,16 3,24l-22 29z"/>
     </g>
    </g>
    <path class="fil53" d="M1911 804l-44 -33c-1,-1 -2,-1 -3,-2l-10 14c-6,8 -4,18 3,24l22 16c7,5 18,4 23,-4l10 -14c0,0 0,-1 -1,-1z"/>
    <path class="fil54" d="M1988 1005c0,145 -117,262 -262,262 -145,0 -262,-117 -262,-262 0,-145 117,-262 262,-262 145,0 262,117 262,262z"/>
    <path class="fil55" d="M1933 1005c0,114 -93,207 -207,207 -114,0 -207,-93 -207,-207 0,-115 93,-207 207,-207 114,0 207,92 207,207z"/>
    <g>
     <path class="fil56" d="M1911 1005c0,102 -83,185 -185,185 -102,0 -185,-83 -185,-185 0,-102 83,-185 185,-185 102,0 185,83 185,185z"/>
    </g>
    <g>
     <polygon class="fil57" points="1700,717 1752,717 1752,693 1700,693 "/>
    </g>
    <path class="fil58" d="M1812 675c0,18 -14,32 -32,32l-108 0c-18,0 -32,-14 -32,-32 0,-18 14,-32 32,-32l108 0c18,0 32,14 32,32z"/>
    <g>
     <path class="fil59" d="M1653 784c2,9 -4,18 -13,21 -18,6 -34,15 -49,28 -7,6 -17,7 -24,1 -7,-6 -6,-18 2,-26 18,-16 39,-27 61,-35 11,-4 22,2 23,11z"/>
    </g>
    <g>
     <path class="fil60" d="M1892 924c-30,-62 -93,-104 -166,-104l0 185 166 -81z"/>
    </g>
    <g>
     <g>
      <g>
       <path class="fil7" d="M1849 935l-171 84c-4,2 -6,7 -4,11 3,4 8,6 12,4l170 -84c5,-2 6,-7 4,-12 -2,-4 -7,-6 -11,-3z"/>
      </g>
     </g>
     <g>
      <path class="fil7" d="M1710 972c-18,9 -26,31 -17,49 9,18 31,25 49,16 18,-9 25,-30 16,-48 -8,-18 -30,-26 -48,-17z"/>
     </g>
     <g>
      <path class="fil7" d="M1717 987c10,-4 22,-1 26,9 5,10 1,21 -8,26 -10,5 -22,1 -27,-9 -4,-9 0,-21 9,-26z"/>
     </g>
    </g>
   </g>
   <g>
    <path class="fil61" d="M1523 1651c0,56 -45,101 -101,101 -56,0 -102,-45 -102,-101 0,-56 46,-102 102,-102 56,0 101,46 101,102z"/>
    <path class="fil6" d="M1419 1597c1,-4 4,-4 6,0l11 29c2,3 6,7 11,7l31 2c4,1 4,3 1,6l-23 20c-3,2 -5,8 -4,12l7 30c1,4 -1,5 -5,3l-26 -16c-3,-2 -9,-2 -13,0l-26 16c-4,2 -6,1 -5,-3l8 -30c1,-4 -1,-10 -4,-12l-24 -20c-3,-3 -2,-5 2,-6l31 -2c4,0 8,-4 10,-7l12 -29z"/>
   </g>
   <g>
    <path class="fil62" d="M1511 1196c-2,0 -3,1 -4,1 -2,2 -4,4 -7,6l-3 2c-3,2 -3,6 -1,9 1,1 3,2 5,2 1,0 2,0 3,-1 4,-2 7,-5 11,-8 2,-2 3,-6 1,-8 -2,-2 -3,-3 -5,-3zm-49 39l0 0c-1,0 -3,1 -4,1 -3,3 -6,6 -9,9 -3,2 -3,6 -1,8 1,2 3,2 5,2 1,0 2,0 3,-1 4,-3 7,-6 11,-9 2,-2 2,-5 0,-8 -1,-1 -3,-2 -5,-2zm-46 41l0 0c-2,0 -3,1 -5,2l-3 3c-2,2 -4,4 -6,5 -2,3 -2,7 0,9 1,1 3,2 5,2 1,0 2,0 4,-1 3,-4 6,-7 10,-10 1,-2 1,-5 -1,-8 -1,-1 -3,-2 -4,-2zm-45 44l0 0c-1,0 -3,0 -4,2l-4 3c-1,2 -3,4 -5,5 -2,3 -2,7 0,9 1,1 3,2 5,2 1,0 3,-1 4,-2 0,0 1,0 1,-1 3,-3 5,-6 8,-9 2,-2 2,-5 0,-8 -2,-1 -3,-1 -5,-1zm-42 45l0 0c-2,0 -3,1 -5,2l-1 2c-3,3 -5,5 -7,8 -2,2 -2,6 1,9 1,1 2,1 4,1 1,0 3,0 4,-2 3,-3 6,-7 9,-10 2,-3 1,-6 -1,-8 -1,-1 -3,-2 -4,-2zm-40 48l0 0c-2,0 -4,1 -5,2 -1,2 -3,4 -5,6l-3 4c-2,3 -1,7 1,9 2,1 3,1 4,1 2,0 3,0 5,-2 2,-3 5,-7 8,-10 2,-3 1,-7 -1,-9 -1,-1 -3,-1 -4,-1zm-38 50l0 0c-1,0 -3,0 -5,2 -1,3 -3,5 -5,7l-2 3c-2,3 -1,7 2,9 1,1 2,1 3,1 2,0 4,-1 5,-2 2,-3 5,-7 8,-11 1,-3 1,-6 -2,-8 -1,-1 -2,-1 -4,-1zm-35 51l0 0c-2,0 -4,1 -5,3 -2,3 -3,5 -5,8l-1 2c-2,3 -1,7 2,9 1,1 2,1 3,1 2,0 3,-1 4,-2 3,-4 6,-8 8,-12 1,-3 0,-6 -2,-8 -1,-1 -2,-1 -4,-1zm-32 53l0 0c-2,0 -4,1 -5,3 -2,4 -4,7 -6,11 -2,3 -1,7 2,8 1,1 2,1 3,1 2,0 4,-1 5,-2 2,-4 5,-8 7,-13 1,-2 0,-6 -3,-7 -1,-1 -2,-1 -3,-1zm-30 55l0 0c-2,0 -4,1 -5,3 -2,4 -4,7 -6,11 -1,3 0,7 3,8 1,1 2,1 3,1 2,0 4,-1 5,-3 2,-4 4,-8 6,-12 1,-3 0,-6 -3,-8 -1,0 -2,0 -3,0zm-26 56l0 0c-3,0 -5,1 -6,3 -1,2 -2,3 -2,5 -1,2 -2,4 -3,7 -2,3 0,7 3,8 1,0 2,0 2,0 3,0 5,-1 6,-3 0,-1 0,-1 1,-2 1,-3 3,-7 4,-10 1,-3 0,-6 -3,-8 -1,0 -2,0 -2,0zm-25 57l0 0c-2,0 -4,2 -5,4 -2,4 -3,8 -5,12 -1,3 1,6 4,8 0,0 1,0 2,0 2,0 5,-1 6,-4 1,-4 3,-8 4,-12 1,-3 0,-6 -3,-7 -1,-1 -2,-1 -3,-1zm-21 59l0 0c-2,0 -5,1 -6,4 -1,4 -2,8 -4,12 -1,3 1,6 4,7 1,1 2,1 2,1 3,0 5,-2 6,-4 1,-4 3,-9 4,-13 1,-3 -1,-6 -4,-7 0,0 -1,0 -2,0zm-18 59l0 0c-3,0 -5,2 -6,5 -1,4 -2,8 -3,12 -1,3 1,6 4,7 1,0 1,0 2,0 2,0 4,-1 5,-3 2,-5 3,-9 4,-14 1,-3 -1,-6 -4,-7 -1,0 -1,0 -2,0zm-15 60l0 0c-3,0 -6,2 -6,5 -1,3 -1,6 -2,8l-1 4c-1,4 2,7 5,8 0,0 1,0 1,0 3,0 5,-2 6,-4 1,-5 2,-9 3,-14 0,-3 -2,-6 -5,-7 0,0 -1,0 -1,0zm-12 61l0 0c-3,0 -6,2 -6,5 -1,3 -1,7 -2,10l0 3c-1,3 1,6 5,7 0,0 0,0 1,0 2,0 5,-2 6,-4 0,-5 1,-9 2,-14 0,-3 -2,-6 -5,-7 -1,0 -1,0 -1,0zm-9 62l0 0c-3,0 -6,2 -7,5 0,3 0,5 0,8 -1,1 -1,3 -1,5 0,3 2,6 6,7 0,0 0,0 0,0 3,0 5,-2 6,-5 1,-5 1,-9 2,-14 0,-3 -2,-6 -6,-6 0,0 0,0 0,0zm-6 62l0 0c-4,0 -6,2 -7,5 0,3 0,6 0,9l0 4c-1,3 2,6 6,6 0,0 0,0 0,0 3,0 5,-1 6,-4 0,-5 0,-10 1,-14 0,-3 -3,-6 -6,-6 0,0 0,0 0,0zm-3 62l0 0c-4,0 -6,3 -6,6 -1,3 -1,5 -1,8l0 4c0,4 3,7 6,7 1,0 1,0 1,0 3,0 5,-3 6,-5 0,-5 0,-10 0,-14 0,-3 -3,-6 -6,-6 0,0 0,0 0,0zm0 62l0 0c0,0 0,0 0,0 -4,0 -6,3 -6,6 0,5 0,9 0,13 0,3 3,6 6,6 0,0 1,0 1,0 3,0 5,-3 5,-5 0,-5 0,-10 0,-14 0,-4 -3,-6 -6,-6zm87 424l0 0c-1,0 -2,0 -3,1 -3,1 -4,5 -3,8l1 3c1,3 2,6 3,8 1,3 4,4 6,4 1,0 2,0 2,0 3,-1 5,-5 4,-8 -2,-4 -3,-8 -5,-13 -1,-2 -3,-3 -5,-3zm24 58l0 0c-1,0 -2,0 -3,0 -3,2 -4,5 -3,8 1,2 2,4 2,5 1,2 2,5 3,7 2,2 4,3 6,3 1,0 2,0 3,0 3,-2 4,-5 3,-8 -2,-4 -4,-8 -6,-13 -1,-1 -3,-2 -5,-2zm27 55l0 0c-1,0 -2,1 -3,1 -3,2 -4,5 -2,8 1,4 3,8 5,12 1,2 4,3 6,3 1,0 2,0 3,-1 3,-1 4,-5 3,-8 -3,-4 -5,-8 -7,-12 -1,-2 -3,-3 -5,-3zm30 55l0 0c-1,0 -2,0 -3,1 -3,2 -4,5 -2,8 1,3 3,6 4,8l2 3c1,2 3,3 5,3 1,0 3,0 4,-1 2,-1 3,-5 2,-8 -2,-4 -5,-7 -7,-11 -1,-2 -3,-3 -5,-3zm33 53l0 0c-1,0 -3,0 -4,1 -3,2 -3,6 -2,8 2,3 3,5 5,7 1,1 1,2 2,4 2,2 4,3 6,3 1,0 2,-1 3,-1 3,-2 3,-5 2,-8 -2,-4 -5,-8 -7,-12 -2,-1 -3,-2 -5,-2zm35 51l0 0c-1,0 -3,1 -4,1 -2,2 -3,6 -1,9 2,2 3,5 5,7l2 3c2,2 3,3 5,3 2,0 3,-1 4,-2 2,-2 3,-5 2,-7 -3,-4 -6,-8 -9,-12 -1,-1 -2,-2 -4,-2zm38 50l0 0c-2,0 -3,0 -4,1 -3,2 -3,6 -1,9 2,3 5,6 8,9 1,2 3,3 5,3 1,0 2,-1 3,-2 3,-2 3,-5 2,-8 -3,-3 -6,-7 -9,-11 -1,-1 -3,-1 -4,-1zm40 47l0 0c-2,0 -3,1 -4,2 -3,2 -3,6 -1,8l3 4c2,2 4,4 6,6 1,1 2,2 4,2 2,0 3,-1 4,-2 3,-2 3,-6 1,-8 -3,-4 -6,-7 -9,-11 -1,-1 -3,-1 -4,-1zm42 45l0 0c-1,0 -3,1 -4,2 -2,3 -3,7 0,9l3 3c2,2 4,4 6,6 1,1 2,2 4,2 2,0 3,-1 4,-2 3,-2 3,-6 0,-9 0,-1 -1,-1 -2,-2 -2,-2 -5,-5 -7,-7 -1,-1 -2,-2 -4,-2zm1911 -162l0 0c-2,0 -3,1 -4,2 -3,4 -6,8 -9,12 -1,3 0,6 2,8 1,1 3,1 4,1 2,0 4,-1 5,-3 2,-3 5,-6 7,-10 2,-3 1,-7 -1,-9 -1,0 -3,-1 -4,-1zm34 -52l0 0c-1,0 -3,1 -4,3 -3,4 -5,8 -8,12 -1,3 0,6 2,7 1,1 3,1 4,1 2,0 4,-1 5,-3 2,-3 4,-7 7,-10 1,-3 1,-7 -2,-9 -1,0 -2,-1 -4,-1zm32 -53l0 0c-2,0 -4,1 -5,3 -2,4 -5,8 -7,12 -1,3 0,6 3,7 1,1 2,1 3,1 2,0 4,-1 5,-3l1 -2c2,-3 4,-6 5,-9 2,-3 1,-7 -2,-8 -1,-1 -2,-1 -3,-1zm29 -55l0 0c-2,0 -5,1 -6,3 -2,4 -4,8 -6,12 -1,3 1,6 3,8 1,0 2,0 3,0 3,0 5,-1 6,-3l2 -4c1,-3 2,-5 3,-7 2,-3 1,-7 -2,-8 -1,-1 -2,-1 -3,-1zm26 -57l0 0c-2,0 -4,2 -5,4 -2,4 -4,8 -6,12 -1,3 1,6 3,8 1,0 2,0 3,0 2,0 5,-1 6,-4l1 -4c2,-2 3,-5 4,-7 1,-3 0,-7 -4,-8 0,0 -1,-1 -2,-1zm23 -57l0 0c-2,0 -4,1 -5,3 -2,4 -4,9 -5,13 -1,3 1,6 4,7 0,1 1,1 2,1 2,0 5,-2 6,-4 1,-3 2,-5 3,-8l1 -4c1,-3 0,-7 -4,-8 0,0 -1,0 -2,0zm20 -59l0 0c-2,0 -4,1 -5,3 -1,5 -3,9 -4,14 -1,3 1,6 4,7 0,0 1,0 2,0 2,0 5,-1 6,-4 1,-3 1,-6 2,-9l1 -3c1,-3 0,-7 -4,-8 0,0 -1,0 -2,0zm18 -60l0 0c-3,0 -5,2 -6,4 -1,4 -2,9 -3,13 -1,3 1,7 4,7 1,1 1,1 2,1 2,0 5,-2 6,-5 0,-2 1,-5 1,-7 1,-2 1,-3 2,-5 1,-3 -1,-7 -5,-8 0,0 -1,0 -1,0zm14 -60l0 0c-3,0 -5,1 -6,4 -1,4 -2,9 -3,13 0,3 2,6 5,7 1,0 1,0 2,0 2,0 5,-2 6,-5 0,-3 1,-7 2,-10l0 -2c1,-3 -1,-7 -5,-7 0,0 -1,0 -1,0zm4 -495l0 0c0,0 -1,0 -1,1 -3,0 -5,3 -5,6 1,5 2,9 2,14 1,2 4,4 6,4 1,0 1,0 1,0 4,-1 6,-4 5,-7 0,-4 -1,-8 -2,-13 -1,-3 -3,-5 -6,-5zm-13 -60l0 0c-1,0 -1,0 -2,0 -3,1 -5,3 -5,7 2,4 3,9 4,13 1,3 3,4 5,4 1,0 1,0 2,0 3,-1 5,-4 4,-7l0 -4c-1,-3 -2,-6 -2,-9 -1,-2 -4,-4 -6,-4zm-17 -60l0 0c0,0 -1,0 -1,0 -4,1 -5,4 -5,7 2,5 3,9 4,14 1,2 3,3 6,3 0,0 1,0 1,0 4,-1 6,-5 5,-8l-2 -4c0,-3 -1,-5 -2,-8 -1,-3 -3,-4 -6,-4zm-19 -59l0 0c-1,0 -1,0 -2,0 -3,1 -5,4 -4,8 2,4 3,8 5,13 1,2 3,3 5,3 1,0 1,0 2,-1 3,-1 5,-4 4,-7l-1 -3c-1,-3 -2,-6 -3,-9 -1,-3 -4,-4 -6,-4zm-22 -58l0 0c-1,0 -2,0 -3,0 -3,1 -4,4 -3,7 1,5 3,9 5,13 1,2 3,3 5,3 1,0 2,0 3,0 3,-1 4,-5 3,-8l-2 -6 -3 -6c-1,-2 -3,-3 -5,-3zm-26 -57l0 0c-1,0 -1,0 -2,0 -3,2 -4,5 -4,8 2,4 4,8 6,12 1,2 4,3 6,3 1,0 1,0 2,0 3,-2 5,-5 3,-8 -1,-3 -2,-5 -3,-8l-2 -4c-1,-2 -3,-3 -6,-3zm-28 -56l0 0c-1,0 -2,0 -3,1 -2,1 -3,5 -2,7 2,5 4,9 6,13 1,1 3,3 5,3 1,0 2,-1 3,-1 3,-2 4,-5 3,-8 -2,-3 -3,-5 -4,-8 -1,-1 -2,-2 -2,-4 -1,-2 -3,-3 -6,-3zm-30 -54l0 0c-1,0 -3,0 -4,1 -2,2 -3,5 -2,8 2,4 5,8 7,12 1,1 3,2 5,2 1,0 2,0 3,-1 3,-1 4,-5 2,-8 -1,-3 -3,-5 -4,-8l-2 -3c-1,-2 -3,-3 -5,-3zm-34 -52l0 0c-1,0 -2,0 -3,1 -3,1 -4,5 -2,8 2,3 5,7 7,11 2,2 3,2 5,2 1,0 2,0 3,-1 3,-1 4,-5 2,-8 -2,-4 -4,-7 -7,-11 -1,-1 -3,-2 -5,-2zm-36 -51l0 0c-1,0 -2,0 -3,1 -3,2 -4,6 -2,8 3,4 5,8 8,12 1,1 3,1 5,1 1,0 2,0 3,-1 3,-2 4,-6 2,-8 -3,-4 -5,-7 -8,-10 -1,-2 -3,-3 -5,-3zm-38 -49l0 0c-2,0 -3,1 -4,2 -3,2 -3,5 -1,8 3,4 6,7 9,11 1,1 2,1 4,1 1,0 2,0 3,-1 3,-2 4,-6 1,-9l-2 -3c-2,-2 -4,-4 -5,-7 -2,-1 -3,-2 -5,-2zm-41 -47l0 0c-2,0 -3,1 -4,2 -3,2 -3,6 -1,8 3,4 6,7 9,11 1,0 3,1 4,1 2,0 3,-1 4,-2 3,-2 3,-6 1,-8l-2 -3c-2,-2 -4,-4 -7,-7 -1,-1 -2,-2 -4,-2zm-43 -45l0 0c-2,0 -3,1 -5,2 -2,3 -2,6 0,9 3,3 7,6 10,9 1,1 2,2 4,2 1,0 3,-1 4,-2 2,-3 2,-6 0,-9 -3,-3 -6,-6 -9,-9 -1,-1 -3,-2 -4,-2zm-46 -42l0 0c-1,0 -3,1 -4,2 -2,2 -2,6 0,8 3,3 6,6 10,9 1,1 2,2 4,2 1,0 3,-1 4,-3 3,-2 2,-6 0,-8 -2,-2 -4,-4 -6,-5l-3 -4c-2,-1 -3,-1 -5,-1zm-47 -40l0 0c-2,0 -4,0 -5,2 -2,2 -2,6 0,8 4,3 8,6 11,9 1,0 3,1 4,1 2,0 3,-1 5,-2 2,-3 1,-7 -1,-9 -3,-2 -5,-4 -8,-6l-2 -2c-1,-1 -3,-1 -4,-1zm-49 -38l0 0c-2,0 -4,1 -5,2 -2,3 -2,6 1,8 3,3 7,6 11,9 1,0 2,0 3,0 2,0 4,0 5,-2 2,-3 1,-7 -1,-9 -4,-2 -7,-5 -11,-7 -1,-1 -2,-1 -3,-1zm-51 -36l0 0c-2,0 -4,1 -5,3 -2,3 -2,6 1,8 4,3 8,5 12,8 0,0 1,1 2,1 2,0 4,-1 5,-3 2,-3 1,-7 -1,-9 -4,-2 -7,-4 -11,-7 -1,0 -2,-1 -3,-1zm-53 -33l0 0c-2,0 -4,1 -5,3 -2,3 -1,7 2,9 4,2 7,5 11,7 1,0 2,0 3,0 2,0 4,-1 5,-3 2,-3 1,-6 -2,-8l-4 -3c-2,-1 -5,-2 -7,-4 -1,0 -2,-1 -3,-1z"/>
   </g>
   <g>
    <path class="fil63" d="M3166 1521c0,56 -45,101 -101,101 -56,0 -102,-45 -102,-101 0,-56 46,-102 102,-102 56,0 101,46 101,102z"/>
    <g>
     <path class="fil6" d="M3039 1513l0 44c0,2 0,5 -1,6 -1,1 -1,1 -1,1 -2,1 -5,1 -7,1l-17 0c-1,0 -2,0 -3,-1 -1,0 -1,-1 -2,-1 0,-2 0,-5 0,-7l0 -47c0,-1 0,-3 0,-3 1,-1 2,-2 3,-2 2,-1 5,0 7,0l12 0c2,0 5,-1 6,0 1,0 2,1 2,2 1,1 1,4 1,7z"/>
     <path class="fil6" d="M3114 1517c1,1 4,3 4,6 0,4 -1,7 -4,8 -1,1 -2,1 -3,1 0,1 1,2 1,2 1,1 2,2 3,3 2,4 0,8 -3,10 -1,1 -1,1 -2,1 0,1 1,1 1,2 1,1 3,5 1,8 0,2 -3,4 -5,4 -3,1 -5,0 -8,0 -15,0 -30,0 -46,0 -3,0 -7,1 -9,-1 -1,-1 0,-4 0,-7l0 -21c0,-5 0,-10 0,-15 0,-19 9,-29 18,-39 1,-2 3,-3 4,-4 1,-1 3,-3 3,-4 0,-1 0,-2 0,-3 0,-1 0,-2 0,-3 0,-2 0,-5 1,-6 0,-3 3,-5 5,-6 4,0 8,2 9,5 3,5 4,13 2,20 0,3 -2,6 -3,9 0,2 -1,4 -3,6 0,1 0,2 0,2 0,2 3,2 5,2 6,0 11,0 17,0 4,0 9,-1 11,0 3,1 5,4 5,7 0,5 -1,8 -3,10 -1,0 -2,0 -3,1 0,1 1,1 2,2z"/>
    </g>
   </g>
  </g>
 </g>
</svg>
