<?xml version="1.0" encoding="UTF-8"?>
<!DOCTYPE svg PUBLIC "-//W3C//DTD SVG 1.1//EN" "http://www.w3.org/Graphics/SVG/1.1/DTD/svg11.dtd">
<!-- Creator: CorelDRAW X7 -->
<svg xmlns="http://www.w3.org/2000/svg" xml:space="preserve" width="0.266661in" height="0.266661in" version="1.1" style="shape-rendering:geometricPrecision; text-rendering:geometricPrecision; image-rendering:optimizeQuality; fill-rule:evenodd; clip-rule:evenodd"
viewBox="0 0 267 267"
 xmlns:xlink="http://www.w3.org/1999/xlink">
 <defs>
  <style type="text/css">
   <![CDATA[
    .fil0 {fill:#FEFEFE}
   ]]>
  </style>
 </defs>
 <g id="Layer_x0020_1">
  <metadata id="CorelCorpID_0Corel-Layer"/>
  <path class="fil0" d="M43 16l181 0c14,0 26,12 26,27l0 181c0,14 -12,26 -26,26l-181 0c-15,0 -27,-12 -27,-26l0 -181c0,-15 12,-27 27,-27zm9 168c15,10 32,15 51,15 62,0 97,-52 95,-99 6,-4 12,-10 17,-17 -6,3 -13,4 -20,5 7,-4 13,-10 15,-18 -6,4 -13,6 -21,8 -6,-7 -15,-11 -25,-11 -21,0 -37,20 -32,41 -28,-1 -52,-14 -69,-35 -8,15 -4,35 11,45 -6,0 -11,-2 -15,-4 -1,15 10,30 26,33 -4,1 -9,1 -15,0 5,14 17,23 32,24 -14,11 -32,15 -50,13z"/>
 </g>
</svg>
