<?xml version="1.0" encoding="UTF-8"?>
<!DOCTYPE svg PUBLIC "-//W3C//DTD SVG 1.1//EN" "http://www.w3.org/Graphics/SVG/1.1/DTD/svg11.dtd">
<!-- Creator: CorelDRAW X7 -->
<svg xmlns="http://www.w3.org/2000/svg" xml:space="preserve" width="0.572in" height="0.541in" version="1.1" style="shape-rendering:geometricPrecision; text-rendering:geometricPrecision; image-rendering:optimizeQuality; fill-rule:evenodd; clip-rule:evenodd"
viewBox="0 0 572 541"
 xmlns:xlink="http://www.w3.org/1999/xlink">
 <defs>
  <style type="text/css">
   <![CDATA[
    .fil0 {fill:#FEFEFE}
   ]]>
  </style>
 </defs>
 <g id="Layer_x0020_1">
  <metadata id="CorelCorpID_0Corel-Layer"/>
  <g id="_958431056">
   <path class="fil0" d="M286 463c-44,-24 -98,-86 -125,-131 -24,-40 -64,-139 -60,-197 37,-11 158,-63 185,-63 28,0 147,52 185,63 5,70 -44,177 -85,233 -21,30 -68,77 -100,95zm0 39c36,-16 97,-74 121,-106 31,-39 60,-89 77,-148 10,-32 16,-60 20,-94 6,-50 -11,-47 -50,-61 -207,-71 -126,-74 -338,1 -39,14 -54,11 -48,62 14,112 53,194 124,272 19,20 70,63 94,74z"/>
   <path class="fil0" d="M193 230c-9,22 24,71 35,87 8,11 19,29 42,20 10,-4 26,-23 33,-30l78 -85c12,-14 40,-40 35,-55 -26,-11 -131,89 -156,102 -16,-14 -47,-42 -67,-39z"/>
  </g>
 </g>
</svg>
