<?xml version="1.0" encoding="UTF-8"?>
<!DOCTYPE svg PUBLIC "-//W3C//DTD SVG 1.1//EN" "http://www.w3.org/Graphics/SVG/1.1/DTD/svg11.dtd">
<!-- Creator: CorelDRAW X7 -->
<svg xmlns="http://www.w3.org/2000/svg" xml:space="preserve" width="0.572in" height="0.541in" version="1.1" style="shape-rendering:geometricPrecision; text-rendering:geometricPrecision; image-rendering:optimizeQuality; fill-rule:evenodd; clip-rule:evenodd"
viewBox="0 0 572 541"
 xmlns:xlink="http://www.w3.org/1999/xlink">
 <defs>
  <style type="text/css">
   <![CDATA[
    .fil0 {fill:#FEFEFE}
   ]]>
  </style>
 </defs>
 <g id="Layer_x0020_1">
  <metadata id="CorelCorpID_0Corel-Layer"/>
  <g id="_847154160">
   <path class="fil0" d="M552 415l0 -22c-1,-2 -1,-6 -9,-6 -4,0 -12,0 -15,0 0,-13 0,-25 0,-37l0 -56c0,-18 -6,-26 -15,-40l-36 -52c0,-1 -1,-2 -2,-3 -2,-3 -5,-6 -9,-9 -6,-6 -16,-10 -26,-11 -9,-2 -25,-1 -36,-1 -12,0 -24,0 -37,0 -7,0 -13,6 -13,14 0,52 0,105 0,157 0,13 0,25 0,38l-106 0c1,1 4,4 7,7 2,2 4,5 5,8 3,5 5,11 7,17 0,0 0,1 0,1 0,2 -1,1 0,1l111 0c1,0 1,-3 2,-5 0,-2 0,-3 1,-5 2,-6 8,-15 12,-20 3,-3 3,-3 7,-6 4,-3 6,-5 12,-7 18,-8 35,-6 52,4 5,3 13,10 16,16 5,7 8,14 9,23l51 0c4,0 8,1 10,-3 1,-1 1,-1 1,-2 0,0 0,0 1,0l0 -1zm-167 -193l0 47c0,9 13,7 21,7 19,0 37,0 56,0 6,0 16,1 19,-2 5,-4 1,-9 -2,-13l-24 -34c-2,-3 -3,-5 -5,-7 -1,-2 -3,-5 -7,-5l-51 0c-4,0 -7,3 -7,7z"/>
   <path class="fil0" d="M90 284l0 72c0,8 0,11 9,11l226 0c10,0 9,-6 9,-12l0 -196c0,-6 0,-10 -4,-16 -3,-4 -8,-7 -13,-7 -6,-1 -77,-1 -82,-1 0,2 5,17 5,34 1,12 -1,25 -4,35 -3,10 -7,19 -12,27l-3 6c-7,11 -22,26 -33,32 -1,1 -1,2 -3,2 -4,3 -8,5 -12,7 -10,5 -28,10 -39,11 -11,0 -17,0 -28,-1 -3,-1 -5,-1 -8,-2 -2,0 -7,-2 -8,-2z"/>
   <path class="fil0" d="M20 168l0 8c1,1 1,3 1,5 1,12 3,22 8,34 2,2 2,4 4,6 2,5 4,7 7,12 6,9 15,17 24,23l4 3c0,0 0,1 1,1 9,5 15,9 27,12 21,6 46,5 65,-3 10,-4 16,-8 25,-14 2,-2 6,-4 8,-6 5,-6 6,-6 11,-13 4,-5 4,-5 8,-11 0,-1 1,-2 1,-3 2,-3 3,-6 5,-10 9,-20 10,-43 5,-65 -2,-6 -5,-15 -8,-21 -8,-15 -16,-25 -30,-36 -26,-20 -55,-21 -55,-21l-14 0c0,0 0,0 -1,0l-5 1c-5,0 -10,1 -15,3 -15,4 -28,11 -40,21 -2,2 -4,4 -6,6 -1,1 -2,2 -3,3 -7,8 -15,21 -19,30 -3,8 -5,16 -7,24 0,2 -1,11 -1,11zm102 84c12,0 24,-2 35,-7 9,-4 16,-10 22,-16 3,-3 6,-6 9,-10 3,-4 5,-7 7,-12 4,-6 6,-15 7,-22 0,-1 1,-2 1,-4 1,-6 0,-14 0,-20 -2,-11 -6,-23 -12,-32 -18,-28 -53,-42 -87,-34 -11,3 -23,9 -31,16l-3 2c0,1 -1,1 -1,2l-4 4c-1,0 -1,1 -2,2 -3,3 -6,8 -9,13 -3,6 -6,13 -8,21 -2,8 -2,18 -1,27 0,4 1,9 2,12 2,6 2,7 4,11 3,6 8,13 12,18 11,14 29,24 46,28 2,0 4,0 6,0 2,1 2,1 4,1 2,0 2,0 3,0z"/>
   <path class="fil0" d="M210 387c-2,0 -4,0 -9,1 -5,1 -10,4 -15,7 -6,5 -4,4 -7,6 -2,3 -6,9 -7,12 -6,16 -3,35 10,47 2,2 2,2 3,3 4,3 4,3 10,6 6,2 11,3 19,3 12,0 23,-7 29,-13 12,-14 14,-32 7,-48l-4 -7c-5,-6 -11,-11 -18,-14 -3,-1 -5,-2 -8,-3 -2,0 -8,-1 -10,0zm0 63c4,0 6,0 11,-2 6,-2 12,-10 12,-17 0,-7 -2,-12 -7,-17 -5,-5 -13,-7 -20,-5 -2,1 -2,1 -4,2 -1,0 -2,1 -3,1 -1,1 -2,2 -3,3 -7,9 -7,19 0,29 3,3 10,6 14,6z"/>
   <path class="fil0" d="M391 429c0,18 10,32 26,40 9,4 20,4 29,1 14,-4 25,-15 29,-29 3,-10 2,-21 -3,-31 -2,-5 -5,-8 -9,-11 -5,-6 -12,-9 -20,-11 -22,-6 -47,9 -51,36 0,1 -1,3 -1,5zm22 -1c0,5 0,9 4,14 1,1 1,1 2,2 2,3 9,6 14,6 6,0 8,0 13,-4l3 -1c2,-3 3,-4 4,-7 4,-7 2,-18 -4,-23 -17,-16 -36,0 -36,13z"/>
   <path class="fil0" d="M73 414c0,4 2,7 6,7l77 0c1,0 1,-3 1,-5 1,-2 1,-4 2,-5 2,-6 6,-13 10,-17l6 -7 -81 0c-9,0 -17,-2 -20,3 -2,3 -1,20 -1,24z"/>
   <path class="fil0" d="M111 118l0 53c0,2 1,4 2,5 3,4 10,5 16,7l18 5c4,1 4,1 8,1 4,0 9,-5 9,-8 0,-4 0,-8 -4,-11 -4,-2 -26,-7 -29,-8 0,-7 0,-14 0,-21 0,-7 0,-14 0,-21 0,-3 0,-6 -2,-8 -1,-1 -4,-3 -7,-4 -7,0 -11,5 -11,10z"/>
  </g>
 </g>
</svg>
