<?xml version="1.0" encoding="UTF-8"?>
<!DOCTYPE svg PUBLIC "-//W3C//DTD SVG 1.1//EN" "http://www.w3.org/Graphics/SVG/1.1/DTD/svg11.dtd">
<!-- Creator: CorelDRAW X7 -->
<svg xmlns="http://www.w3.org/2000/svg" xml:space="preserve" width="0.572in" height="0.541in" version="1.1" style="shape-rendering:geometricPrecision; text-rendering:geometricPrecision; image-rendering:optimizeQuality; fill-rule:evenodd; clip-rule:evenodd"
viewBox="0 0 572 541"
 xmlns:xlink="http://www.w3.org/1999/xlink">
 <defs>
  <style type="text/css">
   <![CDATA[
    .fil0 {fill:#FEFEFE}
   ]]>
  </style>
 </defs>
 <g id="Layer_x0020_1">
  <metadata id="CorelCorpID_0Corel-Layer"/>
  <g id="_1168705712">
   <path class="fil0" d="M51 374l0 -46 28 0 0 46c-2,-2 -5,-6 -7,-9 -4,-5 -5,-7 -8,-8 -1,3 -4,6 -6,8l-5 7c-1,1 -2,1 -2,2zm-21 71l158 0 0 -127 -158 0 0 127z"/>
   <path class="fil0" d="M404 374l0 -46 29 0 0 46 -4 -4c-1,-2 -2,-3 -3,-5 -2,-2 -5,-7 -7,-8 -4,2 -11,15 -15,17zm138 71l0 -127 -158 0 0 127 158 0z"/>
   <path class="fil0" d="M228 374l0 -46 28 0 0 47 -7 -9c-2,-3 -5,-8 -7,-9l-14 17zm-20 71l156 0 0 -127 -156 0 0 127z"/>
   <path class="fil0" d="M316 227l0 -47 28 0 0 47c-1,-2 -12,-15 -13,-18 -4,1 -11,15 -15,18zm-20 71l157 0 0 -128 -157 0 0 128z"/>
   <path class="fil0" d="M139 227l0 -47 29 0 0 47c-1,0 -1,-1 -2,-2l-5 -7c-4,-4 -5,-8 -9,-9 -1,3 -4,6 -6,9 -2,2 -5,7 -7,9zm-20 71l157 0 0 -128 -156 0 -1 128z"/>
   <path class="fil0" d="M120 170l156 0 0 128 -157 0 1 -128zm-2 129l159 0 0 -130 -159 0 0 130z"/>
   <path class="fil0" d="M296 170l157 0 0 128 -157 0 0 -128zm-1 129l159 0 0 -130 -159 0 0 130z"/>
   <path class="fil0" d="M208 318l156 0 0 127 -156 0 0 -127zm-1 128l158 0 0 -129 -158 0 0 129z"/>
   <path class="fil0" d="M542 445l-158 0 0 -127 158 0c-5,-3 -140,-1 -158,-1l0 129 138 0c3,0 6,0 9,0l2 0 7 0c2,-1 0,0 2,-1z"/>
   <path class="fil0" d="M30 445l2 1c1,0 1,0 2,0l154 0 0 0 0 -129c-18,0 -152,-2 -158,1l158 0 0 127 -158 0z"/>
   <g>
    <path class="fil0" d="M133 109l35 0 0 20 -35 0 0 -20zm-14 35l63 0 0 -49 -63 0 0 49z"/>
    <path class="fil0" d="M404 109l35 0 0 20 -35 0 0 -20zm-14 35l63 0 0 -49 -63 0 0 49z"/>
    <path class="fil0" d="M258 109l0 20 -34 1c-1,-3 -1,-18 0,-21 3,0 31,-1 34,0zm-49 35l63 0 0 -49 -63 0 0 49z"/>
    <path class="fil0" d="M314 109l34 0c1,3 1,18 0,21 -3,0 -31,1 -34,-1l0 -20zm-14 35l63 0 0 -49 -63 0 0 49z"/>
    <path class="fil0" d="M258 129l-34 0 0 -20 34 0c-3,-1 -31,0 -34,0 -1,3 -1,18 0,21l34 -1z"/>
    <path class="fil0" d="M314 129c3,2 31,1 34,1 1,-3 1,-18 0,-21l-34 0 34 0 0 20 -34 0z"/>
   </g>
  </g>
 </g>
</svg>
