<?xml version="1.0" encoding="UTF-8"?>
<!DOCTYPE svg PUBLIC "-//W3C//DTD SVG 1.1//EN" "http://www.w3.org/Graphics/SVG/1.1/DTD/svg11.dtd">
<!-- Creator: CorelDRAW X7 -->
<svg xmlns="http://www.w3.org/2000/svg" xml:space="preserve" width="0.572in" height="0.541in" version="1.1" style="shape-rendering:geometricPrecision; text-rendering:geometricPrecision; image-rendering:optimizeQuality; fill-rule:evenodd; clip-rule:evenodd"
viewBox="0 0 572 541"
 xmlns:xlink="http://www.w3.org/1999/xlink">
 <defs>
  <style type="text/css">
   <![CDATA[
    .fil0 {fill:#FEFEFE}
   ]]>
  </style>
 </defs>
 <g id="Layer_x0020_1">
  <metadata id="CorelCorpID_0Corel-Layer"/>
  <g id="_958412464">
   <path class="fil0" d="M482 504l0 -200c-6,-7 -10,-6 -23,-6l-136 0c-13,0 -44,-5 -50,4 -6,7 -5,196 -1,207 12,4 154,1 189,2 13,0 13,1 21,-7zm-107 -189l-30 0 1 30 28 0 1 -30zm14 31l18 0 1 0 12 0 1 -11 0 -4 0 -16 -9 0 -23 0 0 31zm45 0l31 0 1 -31 -3 0 -29 0 0 31z"/>
   <path class="fil0" d="M90 260l0 17c15,29 18,24 24,63 11,77 -12,139 -6,155 10,22 41,23 53,3 15,-25 16,-120 13,-154 -8,-72 -20,-34 27,-126 -7,-14 -37,-54 -24,-76 7,-11 24,-16 36,-4 9,8 10,24 16,35 11,-11 15,-49 -17,-57 -46,-12 -82,44 -99,79 -15,29 -17,51 -23,65z"/>
   <path class="fil0" d="M318 193l-8 9c1,5 2,1 4,9l-11 9c26,3 18,2 35,12 13,-14 13,-2 36,-3 43,-3 64,-56 37,-88 -39,-47 -113,-6 -93,52zm43 -54c-53,15 -28,83 17,72 18,-4 33,-23 27,-46 -4,-17 -23,-32 -44,-26z"/>
   <path class="fil0" d="M259 31c-68,22 -37,122 30,101 24,-7 45,-32 36,-65 -7,-23 -34,-46 -66,-36z"/>
   <path class="fil0" d="M189 138c-9,4 -13,10 -9,25 10,42 41,78 82,93 14,5 47,13 61,5 12,-6 19,-35 -16,-35 -21,-1 -39,-6 -53,-16 -48,-34 -29,-87 -65,-72z"/>
   <path class="fil0" d="M269 283c10,-4 12,-9 19,-14 0,0 -1,-1 -1,-1l-29 -6c-6,3 0,8 3,11 3,4 6,6 8,10z"/>
  </g>
 </g>
</svg>
