<?xml version="1.0" encoding="UTF-8"?>
<!DOCTYPE svg PUBLIC "-//W3C//DTD SVG 1.1//EN" "http://www.w3.org/Graphics/SVG/1.1/DTD/svg11.dtd">
<!-- Creator: CorelDRAW X7 -->
<svg xmlns="http://www.w3.org/2000/svg" xml:space="preserve" width="0.572in" height="0.541in" version="1.1" style="shape-rendering:geometricPrecision; text-rendering:geometricPrecision; image-rendering:optimizeQuality; fill-rule:evenodd; clip-rule:evenodd"
viewBox="0 0 572 541"
 xmlns:xlink="http://www.w3.org/1999/xlink">
 <defs>
  <style type="text/css">
   <![CDATA[
    .fil0 {fill:#FEFEFE}
   ]]>
  </style>
 </defs>
 <g id="Layer_x0020_1">
  <metadata id="CorelCorpID_0Corel-Layer"/>
  <g id="_851760432">
   <path class="fil0" d="M91 401c45,-7 55,-9 101,0 126,24 113,-3 197,-14 36,-5 72,4 103,12l28 -93c4,-17 -3,-19 -19,-19l-421 0c-43,0 -1,52 11,114z"/>
   <path class="fil0" d="M32 446l0 13c15,26 16,16 52,6 118,-32 124,32 271,-8 56,-16 75,-17 132,3 8,2 22,8 29,10 17,4 18,-5 24,-15l0 -12c-7,-10 -9,-13 -24,-17 -10,-4 -19,-7 -29,-10 -103,-31 -121,2 -193,11 -99,11 -108,-41 -239,3 -12,4 -17,8 -23,16z"/>
   <polygon class="fil0" points="435,123 360,124 359,162 341,162 341,181 359,183 359,227 399,227 399,273 493,273 493,183 511,183 511,163 492,162 492,124 454,124 454,66 435,66 "/>
   <polygon class="fil0" points="175,272 235,272 238,272 238,235 174,235 "/>
   <polygon class="fil0" points="252,272 314,272 314,235 251,235 "/>
   <polygon class="fil0" points="99,238 99,273 161,272 161,235 104,235 99,235 "/>
   <polygon class="fil0" points="328,272 391,273 391,236 328,236 "/>
   <polygon class="fil0" points="99,169 107,171 161,170 161,134 99,134 "/>
   <polygon class="fil0" points="175,169 238,171 238,134 175,134 "/>
   <polygon class="fil0" points="99,221 161,222 161,185 99,185 "/>
   <polygon class="fil0" points="175,221 237,222 237,185 176,185 "/>
   <polygon class="fil0" points="252,221 314,222 314,185 252,185 "/>
   <path class="fil0" d="M461 156c23,8 20,-6 19,-18 -6,0 -18,-7 -21,3 -1,5 0,12 2,15z"/>
   <path class="fil0" d="M417 147l0 10c7,1 15,1 21,-1l0 -18c-16,-3 -21,-5 -21,9z"/>
   <polygon class="fil0" points="374,157 395,157 395,137 376,136 "/>
  </g>
 </g>
</svg>
