<?xml version="1.0" encoding="UTF-8"?>
<!DOCTYPE svg PUBLIC "-//W3C//DTD SVG 1.1//EN" "http://www.w3.org/Graphics/SVG/1.1/DTD/svg11.dtd">
<!-- Creator: CorelDRAW X7 -->
<svg xmlns="http://www.w3.org/2000/svg" xml:space="preserve" width="0.572in" height="0.541in" version="1.1" style="shape-rendering:geometricPrecision; text-rendering:geometricPrecision; image-rendering:optimizeQuality; fill-rule:evenodd; clip-rule:evenodd"
viewBox="0 0 572 541"
 xmlns:xlink="http://www.w3.org/1999/xlink">
 <defs>
  <style type="text/css">
   <![CDATA[
    .fil0 {fill:#FEFEFE}
   ]]>
  </style>
 </defs>
 <g id="Layer_x0020_1">
  <metadata id="CorelCorpID_0Corel-Layer"/>
  <path class="fil0" d="M160 186l0 45c-10,0 -16,0 -23,7 -4,4 -7,12 -7,19l0 191c0,12 10,26 19,26l274 0c9,0 19,-14 19,-26l0 -191c0,-7 -3,-15 -7,-18 -6,-8 -13,-8 -23,-8 0,-26 2,-45 -4,-70 -7,-29 -25,-53 -48,-70 -3,-3 -5,-4 -8,-6 -4,-2 -6,-3 -10,-5 -15,-8 -31,-12 -48,-13l-17 0c-16,1 -32,5 -46,12 -15,8 -23,14 -35,25 -9,9 -19,23 -24,35 -5,10 -9,23 -11,34 0,5 -1,8 -1,13zm104 -68l44 0c18,0 34,16 34,34l0 35 -112 0 0 -35c0,-18 16,-34 34,-34zm15 160c21,0 38,17 38,38 0,12 -6,23 -14,30l0 108 -48 0 0 -108c-8,-7 -14,-18 -14,-30 0,-21 17,-38 38,-38z"/>
 </g>
</svg>
