<?xml version="1.0" encoding="UTF-8"?>
<!DOCTYPE svg PUBLIC "-//W3C//DTD SVG 1.1//EN" "http://www.w3.org/Graphics/SVG/1.1/DTD/svg11.dtd">
<!-- Creator: CorelDRAW X7 -->
<svg xmlns="http://www.w3.org/2000/svg" xml:space="preserve" width="0.572in" height="0.541in" version="1.1" style="shape-rendering:geometricPrecision; text-rendering:geometricPrecision; image-rendering:optimizeQuality; fill-rule:evenodd; clip-rule:evenodd"
viewBox="0 0 572 541"
 xmlns:xlink="http://www.w3.org/1999/xlink">
 <defs>
  <style type="text/css">
   <![CDATA[
    .fil0 {fill:#FEFEFE}
   ]]>
  </style>
 </defs>
 <g id="Layer_x0020_1">
  <metadata id="CorelCorpID_0Corel-Layer"/>
  <g id="_851780848">
   <path class="fil0" d="M250 239l63 0c2,2 4,2 4,5 0,11 1,34 -2,44 -5,3 -7,2 -13,2l0 127c0,2 -3,5 -6,5l-185 0c-10,0 -7,-13 -7,-29l0 -101c-1,-6 -2,-2 -6,-2 -5,0 -9,-3 -9,-9 0,-49 -7,-42 32,-42 13,0 26,0 40,0 -2,-7 -3,-7 -3,-16 0,-15 16,-29 34,-20 4,2 5,4 8,6 4,-6 4,-9 10,-14 16,-14 46,-1 46,21 0,20 -4,13 -6,23zm-231 -39l0 216c0,6 4,22 10,22l82 0c3,0 5,-2 7,-4 2,-2 5,-3 7,-4 35,-14 54,8 58,8l193 0 0 -267c-4,-1 -6,-4 -11,-5 -5,-2 -9,-3 -15,-3l-291 0c-24,0 -40,14 -40,37z"/>
   <path class="fil0" d="M440 372c-12,0 -41,3 -41,-6l1 -6c9,-2 40,-2 49,0 1,5 3,12 -9,12zm-42 -30l0 -63c0,-2 3,-5 6,-5l54 0c5,0 7,8 10,15 3,8 23,51 23,55 0,3 -4,5 -8,5l-75 0c-4,0 -6,-1 -9,-2 0,-2 -1,-2 -1,-5zm-11 107l-196 0c1,5 3,7 5,12 3,9 2,13 2,23l195 0c0,-18 3,-30 12,-39 17,-17 25,-18 46,-18 10,0 13,4 18,4l58 0 0 -60c0,-9 -8,-24 -11,-33 -5,-10 -9,-20 -14,-30 -4,-11 -8,-21 -13,-31 -7,-14 -9,-28 -18,-28l-84 0 0 200z"/>
   <path class="fil0" d="M117 290l0 120 59 0 0 -120c-5,0 -5,-1 -9,-1l-12 1c-4,0 -6,-1 -8,-1l-13 1c-5,0 -6,-1 -9,-1 -3,0 -3,1 -8,1z"/>
   <path class="fil0" d="M231 292l0 118 59 0 0 -120 -27 0c-5,0 -6,-1 -9,-1l-15 1c-4,0 -8,-3 -8,2z"/>
   <path class="fil0" d="M358 50c-21,-11 -51,1 -62,21 -6,11 -3,11 -10,13 -41,11 -48,56 -33,56 7,0 6,-8 7,-14 2,-6 3,-10 6,-14 6,-9 14,-14 27,-16 17,-2 5,-6 18,-22 10,-13 28,-18 45,-9 22,11 5,-25 50,-32 18,-3 34,8 44,23 5,8 5,4 16,5 12,2 24,14 28,27 0,4 1,6 4,8 4,2 18,-1 31,13 14,16 4,31 15,31 12,0 6,-36 -17,-50 -9,-5 -14,-5 -19,-7 -7,-3 -5,-22 -32,-33 -4,-2 -6,-2 -12,-3 -12,-3 -3,-9 -25,-21 -28,-16 -64,-7 -81,24z"/>
   <path class="fil0" d="M430 478c0,-17 28,-19 28,1 0,11 -14,18 -23,9 -2,-1 -5,-7 -5,-10zm-30 -3c0,21 8,36 28,44 35,16 73,-20 58,-57 -5,-14 -21,-28 -38,-28l-7 0c-20,0 -41,21 -41,41z"/>
   <path class="fil0" d="M161 477c0,8 -6,15 -13,15 -12,0 -19,-14 -11,-23 3,-4 8,-6 14,-4 5,2 10,6 10,12zm-58 -1c0,22 8,34 27,43 32,16 74,-19 58,-57 -6,-13 -20,-28 -38,-28 -15,0 -24,3 -34,13 -6,6 -13,17 -13,29z"/>
   <polygon class="fil0" points="102,277 304,277 304,250 102,250 "/>
   <path class="fil0" d="M188 292l0 118 32 0 0 -120c-5,0 -6,-1 -9,-1l-15 1c-4,0 -8,-3 -8,2z"/>
   <path class="fil0" d="M108 40c-7,-1 -17,-7 -34,5 -9,8 -10,16 -13,18 -2,1 -12,2 -19,10 -10,10 -15,31 -4,31 14,0 1,-18 21,-27 5,-2 9,-2 14,-3 1,-5 2,-10 5,-15 7,-8 14,-7 21,-7 5,0 9,4 10,4 9,0 9,-9 13,-14 8,-12 30,-15 42,1 1,1 3,4 4,5 5,4 18,0 25,14 3,6 0,10 8,12 7,1 18,2 22,16 3,9 -1,13 10,13 10,0 6,-24 -10,-35 -2,-1 -3,-2 -6,-3 -10,-5 -6,2 -12,-10 -1,-2 -3,-4 -4,-6 -10,-11 -21,-7 -27,-15 -12,-16 -37,-20 -54,-8 -5,4 -9,9 -12,14z"/>
   <path class="fil0" d="M497 480l0 6 42 0c17,0 14,-17 14,-30 0,-19 -10,-18 -28,-18 -15,0 -30,0 -45,0 1,6 17,13 17,42z"/>
   <path class="fil0" d="M411 337l65 0c-2,-6 -16,-36 -21,-46 -1,-3 -1,-5 -4,-5l-40 0 0 51z"/>
   <path class="fil0" d="M58 475c0,14 21,11 34,11 6,0 2,-8 4,-18 1,-3 1,-5 3,-8 1,-3 2,-4 3,-8l-44 0 0 23z"/>
   <path class="fil0" d="M208 239c14,0 37,-2 37,-16l0 -6c0,-7 -9,-15 -17,-15 -19,0 -16,21 -20,37z"/>
   <path class="fil0" d="M170 223c0,15 10,13 26,17 0,-7 -1,-12 -2,-17 -1,-3 -2,-5 -3,-7 -7,-7 -21,-2 -21,7z"/>
  </g>
 </g>
</svg>
