<?xml version="1.0" encoding="UTF-8"?>
<!DOCTYPE svg PUBLIC "-//W3C//DTD SVG 1.1//EN" "http://www.w3.org/Graphics/SVG/1.1/DTD/svg11.dtd">
<!-- Creator: CorelDRAW X7 -->
<svg xmlns="http://www.w3.org/2000/svg" xml:space="preserve" width="0.572in" height="0.541in" version="1.1" style="shape-rendering:geometricPrecision; text-rendering:geometricPrecision; image-rendering:optimizeQuality; fill-rule:evenodd; clip-rule:evenodd"
viewBox="0 0 572 541"
 xmlns:xlink="http://www.w3.org/1999/xlink">
 <defs>
  <style type="text/css">
   <![CDATA[
    .fil0 {fill:#FEFEFE}
   ]]>
  </style>
 </defs>
 <g id="Layer_x0020_1">
  <metadata id="CorelCorpID_0Corel-Layer"/>
  <g id="_735467008">
   <path class="fil0" d="M139 179c0,7 -6,12 -12,12l-99 0 0 30 99 0c16,0 11,23 11,41 1,6 0,5 3,9 3,2 9,10 13,10l358 0c6,0 12,-5 15,-9 5,-7 1,-11 5,-16 8,-10 18,-12 18,-30 0,-24 -29,-23 -35,-28 -8,-5 -13,-38 -56,-37l-96 0c6,8 37,32 37,40 0,5 -6,10 -12,10l-115 0c-12,0 -15,-9 -23,-23 -3,-6 -15,-27 -19,-27l-92 0 0 18z"/>
   <path class="fil0" d="M274 191l92 0c-4,-6 -109,-110 -122,-122 -13,-14 -9,-9 -48,-9 13,24 51,84 68,114 4,6 7,11 10,17z"/>
   <polygon class="fil0" points="179,401 259,401 259,341 179,341 "/>
   <polygon class="fil0" points="129,482 209,482 209,421 129,421 "/>
   <polygon class="fil0" points="229,482 309,482 309,421 229,421 "/>
   <polygon class="fil0" points="329,482 410,482 410,421 329,421 "/>
   <path class="fil0" d="M48 171l71 0c0,-23 2,-14 -11,-33 -4,-6 -32,-43 -33,-48l-27 0 0 81z"/>
   <path class="fil0" d="M22 324c3,5 6,9 9,13 6,-1 16,-9 22,-12l66 -40c-2,-6 -6,-8 -8,-14 -6,1 -17,9 -23,13l-32 20c-4,2 -7,4 -11,6 -4,3 -19,13 -23,14z"/>
   <path class="fil0" d="M169 309c0,33 40,25 40,5 0,-34 -40,-26 -40,-5z"/>
   <path class="fil0" d="M440 309c0,30 40,30 40,0 0,-10 -9,-18 -23,-18 -8,0 -17,9 -17,18z"/>
   <path class="fil0" d="M219 309c0,30 40,30 40,0 0,-10 -9,-18 -23,-18 -8,0 -17,9 -17,18z"/>
  </g>
 </g>
</svg>
