<?xml version="1.0" encoding="UTF-8"?>
<!DOCTYPE svg PUBLIC "-//W3C//DTD SVG 1.1//EN" "http://www.w3.org/Graphics/SVG/1.1/DTD/svg11.dtd">
<!-- Creator: CorelDRAW X7 -->
<svg xmlns="http://www.w3.org/2000/svg" xml:space="preserve" width="0.266661in" height="0.266661in" version="1.1" style="shape-rendering:geometricPrecision; text-rendering:geometricPrecision; image-rendering:optimizeQuality; fill-rule:evenodd; clip-rule:evenodd"
viewBox="0 0 267 267"
 xmlns:xlink="http://www.w3.org/1999/xlink">
 <defs>
  <style type="text/css">
   <![CDATA[
    .fil0 {fill:#FEFEFE}
   ]]>
  </style>
 </defs>
 <g id="Layer_x0020_1">
  <metadata id="CorelCorpID_0Corel-Layer"/>
  <g id="_608907536">
   <path class="fil0" d="M135 227c-19,0 -38,-6 -53,-16l-37 11 12 -35c-12,-16 -18,-36 -18,-57 0,-3 0,-6 0,-9 5,-49 46,-87 96,-87 51,0 93,39 97,89 0,2 1,5 1,7 0,53 -44,97 -98,97zm116 -100c-2,-61 -53,-111 -116,-111 -62,0 -112,48 -114,109 -1,2 -1,4 -1,5 0,22 6,42 17,59l-21 62 64 -20c17,8 35,14 55,14 64,0 116,-52 116,-115l0 -3z"/>
   <path class="fil0" d="M188 153c-3,-1 -16,-8 -19,-9 -3,-1 -4,-1 -6,2 -2,2 -8,9 -10,11 -1,2 -3,2 -5,0 -3,-1 -12,-4 -23,-14 -8,-7 -14,-16 -16,-19 -2,-3 0,-4 2,-6l4 -5 1 -1 1 -3c1,-2 1,-4 0,-5 0,-2 -6,-15 -9,-21 -2,-6 -4,-5 -6,-5 -1,0 -4,0 -5,0 -2,0 -6,1 -8,4 -2,2 -10,9 -10,23 0,3 1,7 2,10 3,9 9,18 9,19 2,2 21,31 49,42 29,11 29,8 34,7 5,0 17,-6 19,-13 2,-7 2,-12 2,-13 -1,-2 -3,-2 -6,-4z"/>
  </g>
 </g>
</svg>
