<?xml version="1.0" encoding="UTF-8"?>
<!DOCTYPE svg PUBLIC "-//W3C//DTD SVG 1.1//EN" "http://www.w3.org/Graphics/SVG/1.1/DTD/svg11.dtd">
<!-- Creator: CorelDRAW X7 -->
<svg xmlns="http://www.w3.org/2000/svg" xml:space="preserve" width="0.0533307in" height="0.0533307in" version="1.1" style="shape-rendering:geometricPrecision; text-rendering:geometricPrecision; image-rendering:optimizeQuality; fill-rule:evenodd; clip-rule:evenodd"
viewBox="0 0 53 53"
 xmlns:xlink="http://www.w3.org/1999/xlink">
 <defs>
  <style type="text/css">
   <![CDATA[
    .fil0 {fill:#FFF212}
    .fil1 {fill:#7F2E2F;fill-rule:nonzero}
   ]]>
  </style>
 </defs>
 <g id="Layer_x0020_1">
  <metadata id="CorelCorpID_0Corel-Layer"/>
  <rect class="fil0" width="53.3307" height="53.3307"/>
  <path class="fil1" d="M11 30l-4 0 0 10 -3 0 0 -27 7 0c2,0 3,1 4,2 2,2 2,4 2,6 0,2 0,4 -1,5 0,1 -1,2 -2,3l4 11 0 0 -3 0 -4 -10zm-4 -4l4 0c1,0 2,0 2,-1 1,-1 1,-2 1,-3 0,-2 0,-3 -1,-4 0,0 -1,-1 -2,-1l-4 0 0 9z"/>
  <polygon id="1" class="fil1" points="25,28 23,32 23,40 20,40 20,13 23,13 23,26 25,23 30,13 34,13 27,25 34,40 31,40 "/>
  <polygon id="2" class="fil1" points="49,17 43,17 43,40 40,40 40,17 35,17 35,13 49,13 "/>
 </g>
</svg>
